<?xml version="1.0" encoding="utf-8"?>
<!-- Generator: Adobe Illustrator 16.0.0, SVG Export Plug-In . SVG Version: 6.00 Build 0)  -->
<!DOCTYPE svg PUBLIC "-//W3C//DTD SVG 1.1//EN" "http://www.w3.org/Graphics/SVG/1.1/DTD/svg11.dtd">
<svg version="1.1" id="Layer_1" xmlns="http://www.w3.org/2000/svg" xmlns:xlink="http://www.w3.org/1999/xlink" x="0px" y="0px"
	 width="238.667px" height="238.667px" viewBox="-96.833 -96.833 238.667 238.667"
	 enable-background="new -96.833 -96.833 238.667 238.667" xml:space="preserve">
<path fill="none" d="M-11,3h36v36h-36V3z"/>
<path fill="#B180B8" d="M30.407-42.497c10.35,0,18.813-8.467,18.813-18.814c0-10.347-8.464-18.813-18.813-18.813
	c-10.351,0-18.814,8.467-18.814,18.813C11.593-50.964,20.057-42.497,30.407-42.497z M-4.397-10.513l-26.341,132.638h19.754
	L5.949,46.869l19.754,18.814v56.441h18.814V51.572L24.76,32.759l5.647-28.221c12.229,14.11,31.044,23.517,51.738,23.517V9.241
	c-17.871,0-32.925-9.407-40.451-22.577l-9.407-15.051c-3.761-5.644-9.407-9.407-15.991-9.407c-2.823,0-4.703,0.94-7.526,0.94
	l-48.915,20.697v44.211h18.814V-3.929L-4.397-10.513"/>
<g>
	<path fill="#FF7300" d="M93.273-67.508l-4.362,45.217h-1.596l-1.063-12.342c-0.073-0.993-0.781-7.518-2.128-19.576
		c-0.994-9.433-1.49-15.178-1.49-17.236c0-6.313,1.772-9.469,5.32-9.469c3.688,0,5.532,2.944,5.532,8.831
		C93.486-70.807,93.414-69.281,93.273-67.508z M93.699-5.268c0,1.631-0.604,2.943-1.809,3.937c-1.207,0.851-2.483,1.277-3.83,1.277
		c-1.277,0-2.447-0.391-3.511-1.17c-1.277-0.994-1.916-2.341-1.916-4.043c0-1.773,0.532-3.227,1.597-4.362
		c0.991-1.134,2.268-1.702,3.83-1.702c1.417,0,2.729,0.638,3.937,1.915C93.131-8.282,93.699-6.9,93.699-5.268z"/>
</g>
</svg>
