<?xml version="1.0" encoding="utf-8"?>
<!-- Generator: Adobe Illustrator 16.0.0, SVG Export Plug-In . SVG Version: 6.00 Build 0)  -->
<!DOCTYPE svg PUBLIC "-//W3C//DTD SVG 1.1//EN" "http://www.w3.org/Graphics/SVG/1.1/DTD/svg11.dtd">
<svg version="1.1" id="Layer_1" xmlns="http://www.w3.org/2000/svg" xmlns:xlink="http://www.w3.org/1999/xlink" x="0px" y="0px"
	 width="238.667px" height="238.667px" viewBox="0 0 238.667 238.667" enable-background="new 0 0 238.667 238.667"
	 xml:space="preserve">
<path fill="none" d="M81.557,101.728h36v36h-36V101.728z"/>
<path fill="#FFFFFF" d="M122.964,56.231c10.35,0,18.813-8.467,18.813-18.814s-8.465-18.813-18.813-18.813
	c-10.352,0-18.815,8.467-18.815,18.813C104.149,47.764,112.614,56.231,122.964,56.231z M88.16,88.215L61.819,220.853h19.754
	l16.933-75.256l19.754,18.814v56.441h18.814V150.3l-19.757-18.813l5.648-28.221c12.229,14.11,31.043,23.517,51.737,23.517v-18.813
	c-17.871,0-32.925-9.407-40.451-22.577l-9.407-15.051c-3.761-5.644-9.407-9.407-15.991-9.407c-2.823,0-4.703,0.94-7.526,0.94
	L52.412,82.571v44.212h18.814V94.799L88.16,88.215"/>
<g>
	<path fill="#EDFF00" d="M202.83,33.22l-4.361,45.217h-1.597l-1.063-12.342c-0.072-0.993-0.78-7.518-2.127-19.576
		c-0.994-9.433-1.49-15.178-1.49-17.236c0-6.313,1.771-9.469,5.32-9.469c3.688,0,5.531,2.944,5.531,8.831
		C203.042,29.921,202.97,31.447,202.83,33.22z M203.255,95.46c0,1.631-0.604,2.943-1.809,3.937c-1.207,0.851-2.482,1.277-3.83,1.277
		c-1.277,0-2.447-0.391-3.512-1.17c-1.276-0.994-1.916-2.341-1.916-4.043c0-1.773,0.533-3.227,1.598-4.362
		c0.991-1.134,2.268-1.702,3.83-1.702c1.417,0,2.729,0.638,3.938,1.915C202.687,92.446,203.255,93.828,203.255,95.46z"/>
</g>
</svg>
