<?xml version="1.0" encoding="utf-8"?>
<!-- Generator: Adobe Illustrator 16.0.0, SVG Export Plug-In . SVG Version: 6.00 Build 0)  -->
<!DOCTYPE svg PUBLIC "-//W3C//DTD SVG 1.1//EN" "http://www.w3.org/Graphics/SVG/1.1/DTD/svg11.dtd">
<svg version="1.1" id="Layer_1" xmlns="http://www.w3.org/2000/svg" xmlns:xlink="http://www.w3.org/1999/xlink" x="0px" y="0px"
	 width="242.5px" height="242.5px" viewBox="0 0 242.5 242.5" enable-background="new 0 0 242.5 242.5" xml:space="preserve">
<path fill="#B180B9" d="M137.813,54.457H42.436c-7.109,0-12.874,5.764-12.874,12.874l-16.897,88.732v26.396v16.169h156.528v-16.169
	v-26.396l-18.506-88.732C150.688,60.221,144.924,54.457,137.813,54.457z"/>
<g>
	<path fill="#B180B9" d="M43.146,211.358c0,5.253-4.979,9.512-11.121,9.512l0,0c-6.143,0-11.122-4.259-11.122-9.512v-16.4
		c0-5.254,4.979-9.512,11.122-9.512l0,0c6.142,0,11.121,4.258,11.121,9.512V211.358z"/>
	<path fill="#B180B9" d="M160.955,211.358c0,5.253-4.979,9.512-11.122,9.512l0,0c-6.143,0-11.121-4.259-11.121-9.512v-16.4
		c0-5.254,4.979-9.512,11.121-9.512l0,0c6.143,0,11.122,4.258,11.122,9.512V211.358z"/>
</g>
<g>
	<circle fill="#FFFFFF" cx="42.117" cy="170.343" r="11.533"/>
	<circle fill="#FFFFFF" cx="139.742" cy="170.343" r="11.534"/>
</g>
<path fill="#FFFFFF" d="M153.129,133.582c0,5.894-3.603,10.672-8.046,10.672H36.777c-4.444,0-8.046-4.778-8.046-10.672l4.023-31.106
	c0-5.894,3.603-10.672,8.046-10.672h99.455c4.443,0,8.046,4.778,8.046,10.672L153.129,133.582z"/>
<path fill="#FFFFFF" d="M125.668,70.933c0,2.351-1.906,4.256-4.256,4.256H60.448c-2.351,0-4.256-1.905-4.256-4.256l0,0
	c0-2.351,1.906-4.256,4.256-4.256h60.964C123.762,66.677,125.668,68.583,125.668,70.933L125.668,70.933z"/>
<circle fill="#B180B9" cx="206.453" cy="49.104" r="31.786"/>
<rect x="203.453" y="70.739" fill="#B180B9" width="6" height="148"/>
<line fill="none" stroke="#ED1C24" stroke-width="12" stroke-miterlimit="10" x1="17.986" y1="18.86" x2="215.125" y2="216"/>
</svg>
