<?xml version="1.0" encoding="utf-8"?>
<!-- Generator: Adobe Illustrator 16.0.0, SVG Export Plug-In . SVG Version: 6.00 Build 0)  -->
<!DOCTYPE svg PUBLIC "-//W3C//DTD SVG 1.1//EN" "http://www.w3.org/Graphics/SVG/1.1/DTD/svg11.dtd">
<svg version="1.1" id="Layer_1" xmlns="http://www.w3.org/2000/svg" xmlns:xlink="http://www.w3.org/1999/xlink" x="0px" y="0px"
	 width="242.5px" height="242.5px" viewBox="0 0 242.5 242.5" enable-background="new 0 0 242.5 242.5" xml:space="preserve">
<path fill="#FFFFFF" d="M150.688,67.331c0-7.11-5.764-12.874-12.875-12.874H42.436c-7.109,0-12.874,5.764-12.874,12.874
	l-16.897,88.731v26.396v16.169h8.238v12.729c0,5.254,4.979,9.513,11.122,9.513c6.142,0,11.121-4.259,11.121-9.513v-12.729h95.566
	v12.729c0,5.254,4.978,9.513,11.121,9.513s11.122-4.259,11.122-9.513v-12.729h8.238v-16.169v-26.396L150.688,67.331z M60.448,66.677
	h60.964c2.35,0,4.256,1.906,4.256,4.256c0,2.351-1.906,4.256-4.256,4.256H60.448c-2.351,0-4.256-1.905-4.256-4.256
	S58.098,66.677,60.448,66.677z M32.754,102.476c0-5.894,3.603-10.672,8.046-10.672h99.455c4.443,0,8.046,4.778,8.046,10.672
	l4.828,31.106c0,5.895-3.604,10.672-8.046,10.672H36.777c-4.444,0-8.046-4.777-8.046-10.672L32.754,102.476z M42.117,181.876
	c-6.37,0-11.533-5.163-11.533-11.533c0-6.369,5.164-11.532,11.533-11.532c6.369,0,11.533,5.163,11.533,11.532
	C53.65,176.713,48.486,181.876,42.117,181.876z M128.208,170.343c0-6.37,5.164-11.534,11.534-11.534s11.533,5.164,11.533,11.534
	s-5.163,11.534-11.533,11.534S128.208,176.713,128.208,170.343z"/>
<path fill="#FFFFFF" d="M238.238,49.104c0-17.555-14.23-31.786-31.785-31.786s-31.786,14.231-31.786,31.786
	c0,16.543,12.639,30.128,28.786,31.641v137.994h6V80.745C225.6,79.232,238.238,65.647,238.238,49.104z"/>
<line fill="none" stroke="#ED1C24" stroke-width="12" stroke-miterlimit="10" x1="17.986" y1="18.86" x2="215.125" y2="216"/>
</svg>
