<?xml version="1.0" encoding="utf-8"?>
<!-- Generator: Adobe Illustrator 16.0.0, SVG Export Plug-In . SVG Version: 6.00 Build 0)  -->
<!DOCTYPE svg PUBLIC "-//W3C//DTD SVG 1.1//EN" "http://www.w3.org/Graphics/SVG/1.1/DTD/svg11.dtd">
<svg version="1.1" id="Layer_1" xmlns="http://www.w3.org/2000/svg" xmlns:xlink="http://www.w3.org/1999/xlink" x="0px" y="0px"
	 width="238.667px" height="238.667px" viewBox="0 0 238.667 238.667" enable-background="new 0 0 238.667 238.667"
	 xml:space="preserve">
<path fill="none" d="M83.778,101.334h36v36h-36V101.334z"/>
<path fill="#FFFFFF" d="M125.185,55.837c10.35,0,18.813-8.467,18.813-18.814s-8.464-18.813-18.813-18.813
	c-10.351,0-18.814,8.467-18.814,18.813C106.371,47.37,114.835,55.837,125.185,55.837z M90.381,87.821L64.041,220.458h19.754
	l16.933-75.256l19.754,18.814v56.441h18.813v-70.553l-19.757-18.813l5.647-28.221c12.229,14.11,31.045,23.517,51.738,23.517v-18.814
	c-17.871,0-32.925-9.407-40.451-22.577l-9.406-15.051c-3.762-5.644-9.408-9.407-15.992-9.407c-2.823,0-4.703,0.94-7.526,0.94
	L54.633,82.177v44.211h18.814V94.405L90.381,87.821"/>
<line fill="none" stroke="#EC1C24" stroke-width="12" stroke-miterlimit="10" x1="20.764" y1="19.194" x2="217.903" y2="216.333"/>
</svg>
