<?xml version="1.0" encoding="utf-8"?>
<!-- Generator: Adobe Illustrator 16.0.0, SVG Export Plug-In . SVG Version: 6.00 Build 0)  -->
<!DOCTYPE svg PUBLIC "-//W3C//DTD SVG 1.1//EN" "http://www.w3.org/Graphics/SVG/1.1/DTD/svg11.dtd">
<svg version="1.1" id="Layer_1" xmlns="http://www.w3.org/2000/svg" xmlns:xlink="http://www.w3.org/1999/xlink" x="0px" y="0px"
	 width="238.667px" height="238.667px" viewBox="-96.833 -96.833 238.667 238.667"
	 enable-background="new -96.833 -96.833 238.667 238.667" xml:space="preserve">
<path fill="none" d="M-11,3h36v36h-36V3z"/>
<path fill="#B180B8" d="M30.407-42.497c10.35,0,18.813-8.467,18.813-18.814c0-10.347-8.464-18.813-18.813-18.813
	c-10.351,0-18.814,8.467-18.814,18.813C11.593-50.964,20.057-42.497,30.407-42.497z M-4.397-10.513l-26.341,132.638h19.754
	L5.949,46.869l19.754,18.814v56.441h18.814V51.572L24.76,32.759l5.647-28.221c12.229,14.11,31.044,23.517,51.738,23.517V9.241
	c-17.871,0-32.925-9.407-40.451-22.577l-9.407-15.051c-3.761-5.644-9.407-9.407-15.991-9.407c-2.823,0-4.703,0.94-7.526,0.94
	l-48.915,20.697v44.211h18.814V-3.929L-4.397-10.513"/>
<line fill="none" stroke="#EC1C24" stroke-width="12" stroke-miterlimit="10" x1="-74.014" y1="-79.14" x2="123.125" y2="118"/>
</svg>
