<?xml version="1.0" encoding="utf-8"?>
<!-- Generator: Adobe Illustrator 21.0.0, SVG Export Plug-In . SVG Version: 6.00 Build 0)  -->
<svg version="1.1" baseProfile="basic" xmlns="http://www.w3.org/2000/svg" xmlns:xlink="http://www.w3.org/1999/xlink" x="0px"
	 y="0px" viewBox="0 0 77 77" xml:space="preserve">
<g id="map">
</g>
<g id="底" display="none">
</g>
<g id="圖層_4">
	<g>
		<g>
			<g>
				<g id="u39k47_24_">
					<g>
						<path fill="#0047A5" d="M40.2,41.4c0,4.2,0,8.4,0,12.6c0,1.2,0.7,1.9,1.9,1.9c2.2,0,4.4,0,6.7,0c1,0,1.8-0.7,1.8-1.7
							c0-8.5,0-17,0-25.5c0-1.1-0.7-1.8-1.8-1.8c-2.2,0-4.4,0-6.7,0c-1.2,0-1.8,0.7-1.8,1.9C40.2,33.1,40.2,37.2,40.2,41.4z
							 M13.8,36.5c0.1-0.2,0.1-0.2,0.1-0.2c0-0.1,0-0.3,0-0.4c0.1-2.3,1-4.2,3.1-5.2c1.9-1,3.8-2,5.9-2.8c1.8-0.7,3.7-1,5.6-1.4
							c0.5-0.1,0.8,0.1,0.9,0.7c0.4,1.4,0.8,2.7,1.3,4c0.1,0.3,0.5,0.8,0.8,0.8c0.4,0,0.8-0.3,1-0.7c1.9-3.7,3.8-7.4,5.7-11.2
							c0.5-1.1,0.1-2.3-0.9-2.8c-3.7-1.8-7.4-3.5-11.2-5.2c-0.3-0.1-0.8-0.1-1,0c-0.2,0.2-0.3,0.7-0.2,1.1c0.4,1.5,0.9,2.9,1.3,4.4
							c-4.1,1.3-7.8,3.2-10.4,6.8C13.3,28,12.8,32,13.8,36.5z M25.3,46.1c0,2.6,0,5.3,0,7.9c0,1.3,0.6,2,2,2c2.1,0,4.2,0,6.4,0
							c1.3,0,1.9-0.7,1.9-1.9c0-5.3,0-10.6,0-16c0-1.3-0.7-2-2-2c-2.1,0-4.2,0-6.3,0c-1.4,0-2,0.6-2,2
							C25.3,40.8,25.3,43.4,25.3,46.1z M20.8,49.6c0-1.5,0-3,0-4.6c0-1.1-0.7-1.8-1.8-1.8c-2.2,0-4.4,0-6.6,0
							c-1.1,0-1.8,0.7-1.8,1.8c0,3,0,6.1,0,9.1c0,1.1,0.7,1.8,1.8,1.8c2.2,0,4.4,0,6.6,0c1.1,0,1.8-0.7,1.8-1.8
							C20.8,52.6,20.8,51.1,20.8,49.6z"/>
						<path fill="#0047A5" d="M40.2,41.4c0-4.2,0-8.4,0-12.6c0-1.2,0.6-1.9,1.8-1.9c2.2,0,4.4,0,6.7,0c1.1,0,1.8,0.7,1.8,1.8
							c0,8.5,0,17,0,25.5c0,1-0.8,1.7-1.8,1.7c-2.2,0-4.4,0-6.7,0c-1.2,0-1.9-0.7-1.9-1.9C40.2,49.9,40.2,45.6,40.2,41.4z"/>
						<path fill="#0047A5" d="M13.8,36.5c-0.9-4.4-0.5-8.5,2.1-12.2c2.5-3.6,6.2-5.5,10.4-6.8c-0.5-1.5-0.9-3-1.3-4.4
							c-0.1-0.3,0-0.9,0.2-1.1c0.2-0.2,0.7-0.2,1,0c3.7,1.7,7.5,3.4,11.2,5.2c1.1,0.5,1.5,1.8,0.9,2.8c-1.9,3.7-3.8,7.5-5.7,11.2
							c-0.2,0.3-0.6,0.7-1,0.7c-0.2,0-0.6-0.5-0.8-0.8c-0.5-1.3-0.9-2.7-1.3-4c-0.2-0.5-0.4-0.8-0.9-0.7c-1.9,0.5-3.8,0.8-5.6,1.4
							c-2,0.8-3.9,1.8-5.9,2.8c-2.2,1.1-3,2.9-3.1,5.2c0,0.1,0,0.3,0,0.4C13.9,36.3,13.9,36.3,13.8,36.5z"/>
						<path fill="#0047A5" d="M25.3,46.1c0-2.7,0-5.3,0-8c0-1.4,0.6-2,2-2c2.1,0,4.2,0,6.3,0c1.3,0,2,0.7,2,2c0,5.3,0,10.6,0,16
							c0,1.2-0.7,1.9-1.9,1.9c-2.1,0-4.2,0-6.4,0c-1.3,0-2-0.6-2-2C25.3,51.4,25.3,48.7,25.3,46.1z"/>
						<path fill="#0047A5" d="M20.8,49.6c0,1.5,0,3,0,4.6c0,1.2-0.7,1.8-1.8,1.8c-2.2,0-4.4,0-6.6,0c-1.1,0-1.8-0.7-1.8-1.8
							c0-3,0-6.1,0-9.1c0-1.1,0.7-1.8,1.8-1.8c2.2,0,4.4,0,6.6,0c1.1,0,1.8,0.7,1.8,1.8C20.8,46.5,20.8,48,20.8,49.6z"/>
					</g>
				</g>
			</g>
		</g>
		<g id="PLR7yg_28_">
			<g>
				<g>
					<path fill="#0047A5" d="M53.4,65.2c-7.2,0-13.2-5.9-13.3-13.1C40,44.8,46,38.8,53.3,38.7c7.3,0,13.3,6,13.3,13.2
						C66.5,59.2,60.6,65.1,53.4,65.2z M64.1,51.9c0-6-4.9-10.8-10.8-10.8c-6,0-10.8,4.9-10.8,10.8c0,6,4.9,10.8,10.8,10.8
						C59.3,62.7,64.1,57.9,64.1,51.9z"/>
				</g>
				<path fill="#FFFFFF" d="M64.1,51.9c0,6-4.8,10.8-10.8,10.8c-6,0-10.8-4.8-10.8-10.8c0-6,4.8-10.8,10.8-10.8
					C59.3,41.1,64.1,46,64.1,51.9z M52.1,53.1c-0.5-0.6-1-1.2-1.4-1.7c-0.5-0.6-1.2-0.7-1.8-0.2c-0.6,0.6-0.5,1.3,0.1,1.9
					c0.7,0.7,1.4,1.4,2.1,2.1c0.8,0.8,1.4,0.8,2.2,0c1.5-1.5,3-3,4.5-4.5c0.6-0.6,1-1.2,0.3-1.9c-0.7-0.8-1.4-0.4-2,0.2
					C54.9,50.3,53.6,51.6,52.1,53.1z"/>
				<path fill="#0047A5" d="M52.1,53.1c1.5-1.5,2.8-2.8,4.1-4.1c0.6-0.6,1.3-1,2-0.2c0.7,0.7,0.3,1.4-0.3,1.9c-1.5,1.5-3,3-4.5,4.5
					c-0.8,0.8-1.4,0.8-2.2,0c-0.7-0.7-1.4-1.4-2.1-2.1c-0.6-0.6-0.7-1.3-0.1-1.9c0.6-0.6,1.2-0.4,1.8,0.2
					C51.2,51.9,51.6,52.5,52.1,53.1z"/>
			</g>
		</g>
	</g>
</g>
<g id="圖層_3">
</g>
</svg>
