<?xml version="1.0" encoding="utf-8"?>
<!-- Generator: Adobe Illustrator 21.0.0, SVG Export Plug-In . SVG Version: 6.00 Build 0)  -->
<svg version="1.1" baseProfile="basic" xmlns="http://www.w3.org/2000/svg" xmlns:xlink="http://www.w3.org/1999/xlink" x="0px"
	 y="0px" viewBox="0 0 38 38" xml:space="preserve">
<g id="map">
</g>
<g id="底" display="none">
</g>
<g id="圖層_4">
	<g>
		<g>
			<path fill="#0047A5" d="M19,33c-7.7,0-14-6.3-14-14S11.3,5,19,5s14,6.3,14,14S26.7,33,19,33z"/>
			<path fill="#FFFFFF" d="M19,6c7.2,0,13,5.8,13,13c0,7.2-5.8,13-13,13c-7.2,0-13-5.8-13-13C6,11.8,11.8,6,19,6 M19,4
				C10.7,4,4,10.7,4,19c0,4,1.6,7.8,4.4,10.6C11.2,32.4,15,34,19,34c8.3,0,15-6.7,15-15c0-4-1.6-7.8-4.4-10.6C26.8,5.6,23,4,19,4
				L19,4z"/>
		</g>
		<g id="u39k47_3_">
			<path fill="#FFFFFF" d="M22.8,21.5c0,1.4,0,2.8,0,4.2c0,0.4,0.2,0.6,0.6,0.6c0.7,0,1.5,0,2.2,0c0.3,0,0.6-0.2,0.6-0.6
				c0-2.8,0-5.6,0-8.5c0-0.4-0.2-0.6-0.6-0.6c-0.7,0-1.5,0-2.2,0c-0.4,0-0.6,0.2-0.6,0.6C22.8,18.7,22.8,20.1,22.8,21.5z M14,19.8
				C14.1,19.8,14.1,19.8,14,19.8c0-0.1,0-0.2,0-0.2c0-0.8,0.3-1.4,1-1.7c0.6-0.3,1.3-0.7,1.9-0.9c0.6-0.2,1.2-0.3,1.9-0.5
				c0.2,0,0.3,0,0.3,0.2c0.1,0.4,0.3,0.9,0.4,1.3c0,0.1,0.2,0.3,0.3,0.3c0.1,0,0.3-0.1,0.3-0.2c0.6-1.2,1.3-2.5,1.9-3.7
				c0.2-0.4,0-0.8-0.3-0.9c-1.2-0.6-2.5-1.2-3.7-1.7c-0.1,0-0.3,0-0.3,0c-0.1,0.1-0.1,0.2-0.1,0.4c0.1,0.5,0.3,1,0.4,1.5
				c-1.4,0.4-2.6,1.1-3.4,2.3C13.9,17,13.7,18.4,14,19.8z M17.9,23.1c0,0.9,0,1.7,0,2.6c0,0.4,0.2,0.7,0.7,0.7c0.7,0,1.4,0,2.1,0
				c0.4,0,0.6-0.2,0.6-0.6c0-1.8,0-3.5,0-5.3c0-0.4-0.2-0.7-0.7-0.7c-0.7,0-1.4,0-2.1,0c-0.5,0-0.7,0.2-0.7,0.7
				C17.9,21.3,17.9,22.2,17.9,23.1z M16.4,24.2c0-0.5,0-1,0-1.5c0-0.4-0.2-0.6-0.6-0.6c-0.7,0-1.5,0-2.2,0c-0.4,0-0.6,0.2-0.6,0.6
				c0,1,0,2,0,3c0,0.4,0.2,0.6,0.6,0.6c0.7,0,1.5,0,2.2,0c0.4,0,0.6-0.2,0.6-0.6C16.4,25.2,16.4,24.7,16.4,24.2z"/>
			<path fill="#FFFFFF" d="M22.8,21.5c0-1.4,0-2.8,0-4.2c0-0.4,0.2-0.6,0.6-0.6c0.7,0,1.5,0,2.2,0c0.4,0,0.6,0.2,0.6,0.6
				c0,2.8,0,5.6,0,8.5c0,0.3-0.3,0.6-0.6,0.6c-0.7,0-1.5,0-2.2,0c-0.4,0-0.6-0.2-0.6-0.6C22.8,24.3,22.8,22.9,22.8,21.5z"/>
			<path fill="#FFFFFF" d="M14,19.8c-0.3-1.5-0.1-2.8,0.7-4c0.8-1.2,2.1-1.8,3.4-2.3c-0.2-0.5-0.3-1-0.4-1.5c0-0.1,0-0.3,0.1-0.4
				c0.1-0.1,0.2-0.1,0.3,0c1.2,0.6,2.5,1.1,3.7,1.7c0.4,0.2,0.5,0.6,0.3,0.9c-0.6,1.2-1.3,2.5-1.9,3.7c-0.1,0.1-0.2,0.2-0.3,0.2
				c-0.1,0-0.2-0.2-0.3-0.3c-0.2-0.4-0.3-0.9-0.4-1.3c-0.1-0.2-0.1-0.3-0.3-0.2c-0.6,0.2-1.3,0.3-1.9,0.5c-0.7,0.3-1.3,0.6-1.9,0.9
				c-0.7,0.4-1,1-1,1.7C14.1,19.7,14.1,19.7,14,19.8C14.1,19.8,14.1,19.8,14,19.8z"/>
			<path fill="#FFFFFF" d="M17.9,23.1c0-0.9,0-1.8,0-2.7c0-0.5,0.2-0.7,0.7-0.7c0.7,0,1.4,0,2.1,0c0.4,0,0.7,0.2,0.7,0.7
				c0,1.8,0,3.5,0,5.3c0,0.4-0.2,0.6-0.6,0.6c-0.7,0-1.4,0-2.1,0c-0.4,0-0.7-0.2-0.7-0.7C17.9,24.8,17.9,23.9,17.9,23.1z"/>
			<path fill="#FFFFFF" d="M16.4,24.2c0,0.5,0,1,0,1.5c0,0.4-0.2,0.6-0.6,0.6c-0.7,0-1.5,0-2.2,0c-0.4,0-0.6-0.2-0.6-0.6
				c0-1,0-2,0-3c0-0.4,0.2-0.6,0.6-0.6c0.7,0,1.5,0,2.2,0c0.4,0,0.6,0.2,0.6,0.6C16.4,23.2,16.4,23.7,16.4,24.2z"/>
		</g>
	</g>
</g>
<g id="圖層_3">
</g>
</svg>
