<?xml version="1.0" encoding="utf-8"?>
<!-- Generator: Adobe Illustrator 16.0.0, SVG Export Plug-In . SVG Version: 6.00 Build 0)  -->
<!DOCTYPE svg PUBLIC "-//W3C//DTD SVG 1.1//EN" "http://www.w3.org/Graphics/SVG/1.1/DTD/svg11.dtd">
<svg version="1.1" xmlns="http://www.w3.org/2000/svg" xmlns:xlink="http://www.w3.org/1999/xlink" x="0px" y="0px"
	 width="141.202px" height="110.744px" viewBox="0 0 141.202 110.744" enable-background="new 0 0 141.202 110.744"
	 xml:space="preserve">
<g id="Layer_2" display="none">
	<polygon display="inline" fill="#FFFFFF" stroke="#000000" stroke-miterlimit="10" points="78.917,-104.452 15.105,-129.09 
		77.547,-151.706 142.358,-128.894 	"/>
	<polygon display="inline" fill="#FFFFFF" stroke="#000000" stroke-miterlimit="10" points="15.105,-60.84 78.917,-27.84 
		78.917,-104.452 15.105,-128.452 	"/>
	<polygon display="inline" fill="#FFFFFF" stroke="#000000" stroke-miterlimit="10" points="142.718,-60.84 78.906,-27.84 
		78.906,-104.452 142.718,-128.452 	"/>
</g>
<g id="Layer_1">
	<polygon fill="#ED1C24" points="5.739,81.244 68.002,107.744 68.002,1.577 5.739,27.911 	"/>
	<polygon fill="#991B1E" points="131.072,81.244 67.425,107.744 68.048,1.577 131.072,27.911 	"/>
	<g>
		<g>
			<path fill="#FFFFFF" d="M10.641,70.193c4.773,1.433,7.907,0.694,9.399-2.214c-2.583-0.785-5.167-1.569-7.75-2.354
				c0.012-1.083,0.025-2.166,0.037-3.248c2.994,0.676,5.988,1.353,8.982,2.029c0.138-1.017,0.275-2.042,0.413-3.075
				c-3.611-0.593-7.222-1.185-10.832-1.776c0.014-1.102,0.028-2.203,0.042-3.306c4.619,0.376,9.237,0.752,13.856,1.128
				c-0.239-1.1-0.479-2.184-0.717-3.254c-3.649-0.077-7.298-0.154-10.948-0.231c-0.918-0.028-1.369-0.032-1.431-1.151
				c0.025-2.078,0.05-4.156,0.076-6.234c0.009-0.952,0.653-1.215,1.451-1.393c15.616-2.944,31.232-5.889,46.848-8.833
				c1.296-0.234,1.489-0.114,1.507,2.221c0.026,4.639,0.052,9.278,0.078,13.917c-0.046,1.789,0.022,2.418-1.485,2.469
				c-3.781-0.08-7.562-0.16-11.342-0.24c-0.313,1.557-0.628,3.093-0.942,4.61c4.546,0.37,9.091,0.739,13.637,1.109
				c-0.12,2.779-0.241,5.546-0.361,8.301c-11.68-2.317-23.358-4.522-35.034-6.614c-0.136,1.124-0.272,2.241-0.408,3.35
				c3.295,0.744,6.59,1.488,9.885,2.233c1.074,0.171,1.525,0.626,1.582,1.21c0,2.206,0.001,4.412,0.002,6.618
				c0.001,4.498-1.131,7.394-3.348,8.198c-0.738,0.116-1.931-0.213-3.465-0.975c-1.362-0.675-3.067-1.715-5.052-3.032
				c-0.069-1.616-0.139-3.226-0.208-4.828c1.981,1.378,3.569,2.362,4.703,2.833c0.623,0.26,1.077,0.385,1.418,0.33
				c0.965-0.043,1.591-2.397,1.591-3.135c0.001-0.776,0.002-1.552,0.003-2.328c0-0.466-0.226-0.732-0.622-0.853
				c-2.471-0.75-4.941-1.501-7.412-2.251c-1.776,5.191-5.598,6.847-11.462,5.092C12.433,73.008,11.536,71.567,10.641,70.193z
				 M34.21,33.479c0.001-1.087,0.001-2.175,0.002-3.262c-7.388,2.688-14.776,5.378-22.165,8.066
				c0.014-1.127,0.027-2.253,0.041-3.379c7.375-3.307,14.751-6.613,22.127-9.919c0-1.11,0.001-2.22,0.002-3.33
				c1.559-0.782,3.118-1.565,4.677-2.348c0.001,1.193,0.002,2.386,0.003,3.579c7.339-3.289,14.677-6.579,22.016-9.868
				c0.015,2.761,0.03,5.521,0.045,8.282c-7.354,2.336-14.706,4.739-22.057,7.209c0.001,1.169,0.002,2.338,0.003,3.506
				c7.327-2.282,14.654-4.564,21.98-6.847c0.012,2.228,0.024,4.455,0.037,6.683c-16.28,3.849-32.561,7.696-48.841,11.545
				c0.012-1.012,0.024-2.023,0.036-3.035C19.481,38.066,26.846,35.772,34.21,33.479z M54.362,43.552
				c-0.257,0.029-37.904,4.312-37.904,4.312c-0.278,0.061-0.387,0.078-0.386,0.333c0-0.001,0.046,2.111,0.056,2.283
				c0.009,0.171,0.063,0.128,0.306,0.115c0.243-0.012,37.719-2.017,37.95-2.02c0.23-0.002,0.223-0.372,0.223-0.372
				c-0.006-1.47-0.013-2.938-0.019-4.407C54.588,43.796,54.62,43.522,54.362,43.552z M43.093,58.867
				c0.354-1.418,0.708-2.858,1.062-4.319c-5.157-0.109-10.314-0.218-15.472-0.327c0.241,1.163,0.482,2.34,0.724,3.532
				C33.968,58.124,38.531,58.495,43.093,58.867z M44.963,87.697c0.001,0.636,0.003,1.271,0.004,1.908
				c-1.458-0.717-2.916-1.434-4.373-2.149c-0.007-5.51-0.014-11.02-0.021-16.529c-0.001-1.269,0.506-1.75,1.41-1.545
				c5.763,1.327,11.525,2.653,17.288,3.98c1.017,0.23,1.53,1.12,1.539,2.859c0.039,7.075,0.077,14.151,0.116,21.227
				c-1.458-0.716-2.916-1.433-4.374-2.149c-0.003-0.734-0.007-1.47-0.01-2.204C52.683,91.296,48.823,89.496,44.963,87.697z
				 M44.949,81.896c3.854,1.499,7.708,2.997,11.562,4.495c-0.009-1.988-0.019-3.978-0.028-5.967
				c-0.003-0.645-0.231-1.081-0.684-1.22c-3.414-1.052-6.827-2.104-10.241-3.154c-0.453-0.139-0.679,0.108-0.621,0.683
				C44.941,78.455,44.945,80.176,44.949,81.896z"/>
		</g>
	</g>
	<g>
		<g>
			<path fill="#FFFFFF" d="M93.567,82.54c4.744-2.289,9.903-6.03,15.402-10.051c-1.605-1.89-2.971-4.359-4.039-7.313
				c-4.842,0.896-9.684,1.793-14.524,2.688c-0.005,1.634-0.009,3.268-0.013,4.9c3.55-1.596,6.269-2.821,8.278-3.913
				c0.314,1.753,0.629,3.482,0.944,5.187c-1.954,1.148-4.972,2.802-9.239,4.994c-0.004,1.526-0.008,3.053-0.013,4.579
				c-0.007,2.948-2.058,4.985-7.281,7.277c-1.722,0.745-3.856,1.242-6.462,1.3c0.014-2.513,0.027-5.024,0.041-7.537
				c2.424,0.129,4.75,0.45,5.726,0.265c2.464-0.471,3.332-1.882,3.427-3.552c-4.168,1.823-8.338,3.71-12.508,5.659
				c0.077-2.979,0.155-5.953,0.232-8.921c3.678-0.497,7.627-1.476,12.301-3.364c-0.1-1.973-0.199-3.953-0.299-5.94
				c-3.958,1.129-7.916,2.314-11.876,3.555c0.124-2.982,0.248-5.956,0.372-8.919c3.95-0.423,7.899-0.846,11.848-1.269
				c0.005-1.246,0.01-2.493,0.014-3.739c-3.779,0.154-7.559,0.297-11.337,0.43c-0.13-2.625-0.261-5.261-0.391-7.91
				c8.995-0.052,17.171,0.176,22.981-0.423c0.214,1.771,0.429,3.528,0.643,5.269c-1.529,0.49-4.003,1.121-7.361,1.79
				c-0.003,1.366-0.007,2.732-0.011,4.098c4.362-0.467,8.725-0.934,13.087-1.4c-0.77-2.868-1.419-6.249-2.066-10.078
				c-9.343-0.418-18.686-0.837-28.028-1.255c0.015-2.509,0.03-5.017,0.044-7.525c7.997,0.988,15.995,1.977,23.992,2.966
				c0.001-1.172,0.002-2.343,0.003-3.514c-7.921-1.369-15.842-2.738-23.762-4.108c0.05-2.479,0.1-4.956,0.15-7.431
				c7.871,2.19,15.743,4.328,23.616,6.415c0.001-1.245,0.002-2.489,0.003-3.734c-7.968-2.415-15.936-4.846-23.903-7.29
				c0.016-2.718,0.032-5.436,0.048-8.152c4.996,2.163,9.993,4.289,14.991,6.378c-0.774-1.446-1.548-2.927-2.321-4.44
				c1.133-0.993,2.264-1.926,3.394-2.798c1.334,2.262,2.785,5.146,4.298,8.425c-0.292,0.168-0.584,0.339-0.877,0.514
				c4.24,1.604,8.48,3.208,12.72,4.812c2.037-1.553,3.604-2.736,4.589-3.824c1.247,1.608,2.494,3.15,3.744,4.628
				c-0.618,0.522-1.237,1.071-1.856,1.646c3.929,1.486,7.857,2.973,11.787,4.459c0.013,1.191,0.026,2.383,0.04,3.575
				c-7.248-2.157-14.495-4.313-21.743-6.471c0.001,1.159,0.002,2.318,0.003,3.477c6.261,1.534,12.521,3.067,18.782,4.601
				c0.01,1.142,0.021,2.282,0.031,3.423c-6.271-1.084-12.54-2.168-18.811-3.252c0.001,1.091,0.001,2.182,0.002,3.271
				c7.959,0.984,15.917,1.968,23.875,2.951c0.015,1.122,0.029,2.245,0.043,3.367c-6.659-0.298-13.318-0.596-19.978-0.895
				c0.654,3.685,1.31,6.811,2.083,9.336c5.678-0.607,11.356-1.216,17.034-1.824c0.015,1.147,0.028,2.295,0.042,3.441
				c-5.137,0.951-10.273,1.902-15.41,2.854c0.894,1.828,2.022,3.34,3.332,4.574c2.063-2.056,4.123-3.947,6.18-5.676
				c0.954,0.895,1.908,1.728,2.864,2.499c-1.979,1.687-3.961,3.521-5.946,5.503c0.635,0.272,1.27,0.527,1.905,0.765
				c1.071,0.234,1.844,0.233,2.495-0.015c0.299-0.113,1.187-0.554,1.357-1.338c0.347-1.044,0.512-2.333,0.496-3.948
				c1.522-0.021,3.046-0.082,4.569-0.184c-0.654,4.233-1.992,7.265-3.769,8.685c-0.473,0.364-1.008,0.668-1.482,0.894
				c-3.508,1.789-8.339,0.388-10.124-0.808c-4.851,4.177-10.607,8.625-17.083,12.849C94.43,86.231,93.998,84.403,93.567,82.54z
				 M119.539,58.156c-1.006-0.366-3.607-1.208-7.736-2.866c0.661-1.371,1.321-2.694,1.981-3.972c3.532,1.59,6.249,2.653,8.022,3.468
				C121.052,55.858,120.296,56.981,119.539,58.156z"/>
		</g>
	</g>
</g>
</svg>
