<?xml version="1.0" encoding="utf-8"?>
<!-- Generator: Adobe Illustrator 16.0.0, SVG Export Plug-In . SVG Version: 6.00 Build 0)  -->
<!DOCTYPE svg PUBLIC "-//W3C//DTD SVG 1.1//EN" "http://www.w3.org/Graphics/SVG/1.1/DTD/svg11.dtd">
<svg version="1.1" xmlns="http://www.w3.org/2000/svg" xmlns:xlink="http://www.w3.org/1999/xlink" x="0px" y="0px"
	 width="260.334px" height="208px" viewBox="0 0 260.334 208" enable-background="new 0 0 260.334 208" xml:space="preserve">
<g id="Layer_2" display="none">
	<rect x="-114.666" y="-72.128" display="inline" fill="#00AEEF" width="442" height="367.499"/>
</g>
<g id="Layer_3">
	<path fill-rule="evenodd" clip-rule="evenodd" fill="#FFFFFF" d="M13.789,117.869c1.742-1.537,2.762-0.876,3.891,0.463
		c0.86,1.02,1.346,0.249,2.194,1.28c0.94,1.146,1.973,2.21,3.743,1.568c0.39-0.141,0.932,0.205,1.384,0.153
		c1.518-0.177,3.052-0.329,4.526-0.705c0.638-0.163,1.084-0.977,1.721-1.271c1.424-0.655,3.308-0.415,4.753-1.028
		c1.658-0.703-0.538,0.267,1.106-0.468c0.616-0.275,1.244-0.522,1.863-0.792c2.789-1.217,5.581-2.429,8.364-3.657
		c3.014-1.331,9.608-3.148,12.608-4.509c0.462-0.21,0.854-0.567,1.294-0.831c0.474-0.285,0.966-0.538,1.582-0.878
		c-0.351-2.222-1.214-4.326-3.127-6.057c-1.043-0.943-2.293-2.091-1.749-3.956c1.204,0.083,2.378,0.144,3.549,0.249
		c0.92,0.083,1.374,0.095,1.299-1.218c-0.089-1.571,0.953-2.932,2.107-3.996c0.917-0.846,0.87-1.606,0.3-2.584
		c-1.037-1.78-2.154-3.54-2.939-5.431c-0.39-0.94-0.112-2.156-0.148-3.247c-0.023-0.712,0.043-1.451-0.122-2.131
		c-0.54-2.226-1.43-4.394-0.397-6.739c0.21-0.479-0.045-1.17-0.108-1.761c-0.101-0.945-0.33-1.893-0.297-2.832
		c0.027-0.8,0.347-1.589,0.609-2.679c3.716,2.461,5.985-0.507,8.759-1.308c-0.028-0.165-0.056-0.329-0.083-0.494
		c-0.668,0.072-1.336,0.144-1.91,0.206c0.946-3.354,1.913-6.778,2.921-10.353c-2.291-0.109-3.925,0.78-5.594,1.48
		c-1.597,0.671-3.141,1.465-4.717,2.186c-1.174,0.537-4.407-0.28-5.369-1.267c-2.359-2.421-3.694-5.39-4.651-8.566
		c-0.052-0.175-0.007-0.379-0.007-0.91c1.19,0.517,2.368,0.761,3.19,1.437c1.997,1.643,4.078,1.277,6.183,0.553
		c3.618-1.245,7.198-2.597,10.802-3.882c1.017-0.363,2.081-0.599,3.079-1.004c0.361-0.146,0.663-0.579,0.863-0.95
		c0.273-0.505,0.353-1.118,0.64-1.612c0.993-1.708,0.808-3.663,1.142-5.496c0.258-1.416-0.088-1.624-1.345-2.171
		c-0.692-1.527-1.279-2.689-1.747-3.898c-0.323-0.833-0.584-1.717-0.688-2.601c-0.135-1.159,0.849-1.777,1.98-1.388
		c2.108,0.725,3.621,2.223,5.001,3.868c0.312,0.373,0.401,0.944,0.553,1.437c0.3,0.977,0.646,1.947,0.839,2.947
		c0.309,1.601,0.543,3.219,0.745,4.838c0.153,1.227,0.58,1.662,1.715,1.368c1.255-0.325,2.482-0.76,3.712-1.172
		c0.583-0.195,1.145-0.449,1.918-0.756c0.281-1.143-1.156-1.105-1.623-1.777c0.793-1.553,1.011-1.59,2.938-1.022
		c1.846,0.544,3.719,0.996,5.583,1.479c2.058,0.535,4.041,1.239,5.367,3.018c0.309,0.414,0.479,1.182,0.308,1.633
		c-0.169,0.444-0.813,0.868-1.32,0.984c-0.721,0.165-1.518-0.038-2.266,0.052c-2.145,0.259-4.048,1.249-6.004,2.079
		c-1.877,0.798-3.767,1.568-5.665,2.315c-1.572,0.619-3.163,1.188-4.746,1.778c-0.187,0.069-0.373,0.175-0.565,0.19
		c-1.88,0.148-2.227,1.592-2.643,3.031c-0.353,1.22-0.765,2.427-1.22,3.613c-0.422,1.098-0.229,1.676,0.913,1.938
		c2.319,0.531,4.644,1.048,6.987,1.455c1.143,0.198,1.74,1.21,1.65,1.845c-0.136,0.968-0.968,1.848-1.548,2.737
		c-0.109,0.168-0.439,0.176-0.634,0.308c-1.483,1.003-2.887,2.15-4.455,2.997c-1.738,0.939-3.65,1.552-5.437,2.411
		c-2.104,1.012-4.215,2.038-6.208,3.248c-1.178,0.715-2.304,1.005-3.612,0.729c-0.693-0.146-1.383-0.308-2.06-0.46
		c-0.624,1.133,0.223,1.758,0.672,2.408c1.178,1.707,2.644,1.918,4.387,0.978c3.95-2.132,7.926-4.221,11.931-6.248
		c1.542-0.78,3.191-1.347,4.865-2.041c-0.226-0.565-0.366-0.916-0.612-1.53c1.039,0.282,1.893,0.63,2.775,0.728
		c1.521,0.168,3.065,0.122,4.589,0.273c1.652,0.164,3.255,1.522,3.813,2.989c0.478,1.256-0.297,2.238-1.078,2.755
		c-2.474,1.639-3.471,4.486-5.563,6.384c-1.154,1.047-2.508,1.875-3.875,2.597c-0.262,0.369-0.538,0.728-0.78,1.109
		c-0.143,0.224-0.33,0.484-0.327,0.726c0.021,1.458,0.172,2.918,0.122,4.373c-0.061,1.74-0.58,3.292-2.131,4.376
		c-2.178,1.523-4.265,3.18-6.455,4.685c-1.637,1.124-3.341,2.167-5.09,3.104c-0.664,0.356-1.553,0.265-2.313,0.474
		c-0.926,0.254-1.053,0.753-0.453,1.45c0.998,1.157,3.337,1.241,4.438,0.196c0.83-0.789,1.711-1.524,2.382-2.116
		c0.557,0.693,0.948,1.643,1.572,1.834c0.696,0.214,1.615-0.22,2.417-0.445c1.527-0.43,3.061-0.854,4.552-1.389
		c1.072-0.385,2.08-0.944,3.33-1.525c0.46,0.413,1.038-0.001,1.681-0.515c0.318-0.255,0.844-0.24,1.267-0.377
		c0.208-0.067,0.462-0.153,0.582-0.315c0.698-0.943,1.456-1.861,2.016-2.884c0.802-1.467,1.696-2.962,2.05-4.556
		c0.147-0.659-0.883-1.735-1.596-2.383c-0.669-0.609-0.892-1.154-0.583-2.165c1.312,0.195,2.664,0.273,3.938,0.63
		c0.771,0.216,1.424,0.857,2.122,1.32c0.39,0.258,0.74,0.583,1.147,0.807c0.909,0.5,1.227,1.263,1.275,2.271
		c0.057,1.171,0.174,2.353,0.418,3.497c0.204,0.954,1.468,1.243,2.308,0.606c0.864-0.655,4.105-1.226,4.739-0.765
		c0.694-0.226,1.178-0.467,1.685-0.535c2.027-0.273,12.654-2.452,14.23-4.104c0.231-0.242,0.817-0.354,1.156-0.252
		c2.747,0.822,5.494,4.204,8.196,5.158c0.869,0.307,1.605,0.988,2.402,1.498c0.523,0.334,1.063,0.645,1.563,1.01
		c0.294,0.216,1.838,1.808,2.097,2.071c-0.305,0.234-1.892,0.672-2.232,0.748c-1.01,0.225-2.043,0.359-3.072,0.482
		c-1.512,0.181-3.025,0.355-4.543,0.46c-0.619,0.044-1.251-0.096-1.876-0.165c-0.15-0.017-0.335-0.168-0.436-0.118
		c-1.883,0.919-12.534,0.182-14.484,0.719c-1.989,0.549-3.817,0.709-5.825,1.177c-3.417,0.796-6.882,1.393-10.27,2.291
		c-2.777,0.736-5.506,1.698-8.19,2.731c-2.078,0.8-4.175,1.009-6.234,1.865c-2.241,0.934-4.543,1.719-6.923,2.377
		c0.419-0.453,0.839-0.906,1.448-1.564c-0.495-0.14-0.851-0.368-1.114-0.29c-1.005,0.297-1.958,0.788-2.973,1.033
		c-1.95,0.472-3.435,2.25-3.353,4.223c-0.773,0.471-1.472,0.283-2.331,0.02c-1.051-0.322-2.256-0.357-3.36-0.227
		c-0.746,0.089-0.406,0.727-0.008,1.051c1.067,0.87,2.143,1.734,3.257,2.541c1.826,1.322,3.162,3.071,4.156,5.033
		c0.872,1.721,0.998,3.491-0.16,5.295c-0.615,0.958-0.782,2.204-1.151,3.32c0.096,0.112,0.192,0.225,0.289,0.337
		c0.513-0.158,1.036-0.288,1.536-0.479c0.958-0.366,1.921-0.729,2.846-1.168c0.499-0.237,0.916-0.64,1.384-0.947
		c0.344-0.226,0.747-0.639,1.063-0.588c1.791,0.286,3.57,0.657,5.339,1.06c0.923,0.209,1.866,0.44,2.714,0.844
		c1.381,0.655,2.028,2.109,2.069,3.386c0.085,2.638-0.185,5.311-1.593,7.692c-1.946,3.292-3.951,6.552-5.801,9.896
		c-1.308,2.364-2.432,4.832-3.572,7.284c-0.447,0.96-0.706,2.007-1.071,3.006c-0.09,0.247-0.214,0.511-0.398,0.688
		c-1.377,1.333-2.816,0.734-3.691-1.362c-0.946-2.268-1.788-4.569-3.296-6.601c-0.838-1.13-1.168-2.671-1.585-4.068
		c-0.371-1.243-0.7-2.537-0.768-3.823c-0.069-1.315,0.202-2.649,0.31-3.824c-0.668,0.577-1.643,1.112-2.159,1.935
		c-0.923,1.472-0.21,3.56-1.067,5.079c-0.517,0.916-1.175,1.824-1.972,2.496c-1.328,1.121-1.813,2.685-2.576,4.114
		c-0.091,0.171-0.339,0.258-0.564,0.42c0.433,1.516-0.09,2.521-1.713,3.322c-0.419,0.207-1.006,0.777-0.96,1.102
		c0.213,1.495-1.177,2.046-1.642,3.114c-0.059,0.136-1.201,1.275-1.274,1.328c-1.844,1.323-1.266,0.453-1.844,1.323
		c-0.7,1.055-1.159,2.273-1.887,3.306c-0.414,0.587-1.155,0.942-1.853,1.482c0.152,0.571-0.486,1.697-1.361,1.846
		c0.238-1.421,0.471-2.827,0.713-4.23c0.026-0.153,0.064-0.365,0.171-0.435c1.393-0.898,1.453-2.427,1.938-3.8
		c0.698-1.979,1.696-3.852,2.51-5.793c1.217-2.906,2.382-5.835,3.579-8.75c0.211-0.514,0.502-0.996,0.696-1.516
		c0.354-0.95,0.664-1.917,1.112-3.229c-0.978,0.17-1.614,0.173-2.161,0.396c-2.453,0.996-4.878,2.063-7.321,3.084
		c-0.438,0.184-0.907,0.31-1.374,0.405c-3.437,0.698-6.964-1.514-7.739-4.994c-0.278-1.247-0.145-2.585-0.216-3.88
		c-0.032-0.596-0.149-1.189-0.141-1.782c0.006-0.418,0.159-0.833,0.247-1.25c0.106,0.01,0.213,0.02,0.319,0.028
		c0.274,0.761,0.521,1.533,0.829,2.28c0.693,1.689,2.286,2.596,4.084,2.73c2.514,0.188,4.656-0.897,6.84-1.783
		c3.108-1.26,6.171-2.642,9.191-4.102c0.609-0.295,1.069-1.112,1.368-1.79c0.676-1.534,1.267-3.112,1.782-4.708
		c0.544-1.686,0.964-3.412,1.432-5.122c0.155-0.566,0.237-1.159,0.449-1.703c0.634-1.633-0.289-2.802-1.12-4.011
		c-0.179-0.261-0.381-0.514-0.518-0.796c-0.695-1.44-1.866-1.706-3.219-0.717c-0.064,0.047-0.14,0.141-0.194,0.13
		c-1.569-0.309-2.221,1.098-3.294,1.725c-1.495,0.873-3.079,1.592-4.583,2.45c-2.012,1.148-3.97,2.393-5.979,3.547
		c-1.252,0.719-2.554,1.349-3.835,2.015c-0.281,0.146-0.6,0.236-0.85,0.421c-2.998,2.209-6.416,3.509-10.044,3.913
		c-3.844,0.43-7.567-0.4-10.545-3.064c-1.531-1.369-2.36-3.253-2.612-5.383c-0.178-1.503-0.555-2.998-1.002-4.447
		C14.924,118.623,14.273,118.312,13.789,117.869z M77.972,81.942c-0.083-0.068-0.167-0.136-0.25-0.204
		c0.465-0.197,1.08-0.267,1.37-0.611c1.98-2.343,3.921-4.722,5.802-7.145c0.344-0.443,0.357-1.144,0.522-1.725
		c-0.717-0.015-1.435-0.039-2.152-0.036c-0.095,0-0.182,0.152-0.286,0.206c-1.192,0.607-2.373,1.237-3.583,1.807
		c-2.771,1.304-5.567,2.481-7.898,4.627c-2.158,1.987-2.181,4.543-2.469,7.043c-0.122,1.059,0.867,1.529,1.927,1.751
		c1.235,0.26,1.782-0.64,2.498-1.175c1.213-0.907,2.32-1.963,3.415-3.017C77.313,83.037,77.609,82.454,77.972,81.942z
		 M71.557,150.402c0.229-0.3,0.422-0.46,0.493-0.662c0.873-2.501,2.88-4.395,3.492-7.105c0.401-1.776,1.766-3.318,2.544-5.035
		c0.26-0.573,0.083-1.372-0.012-2.051c-0.014-0.1-0.719-0.23-1.046-0.138c-1.626,0.46-3.264,0.909-4.839,1.517
		c-1.865,0.719-3.696,1.542-5.477,2.446c-0.337,0.172-0.664,1.088-0.5,1.402c0.929,1.781,2.016,3.479,3.029,5.217
		c0.176,0.302,0.376,0.661,0.365,0.986C69.556,148.477,70.439,149.403,71.557,150.402z"/>
	<path fill-rule="evenodd" clip-rule="evenodd" fill="#FFFFFF" d="M228.842,150.254c0.339,1.164,0.367,2.6,1.091,3.425
		c1.015,1.157,0.409,2.484,0.944,3.621c0.121,0.257-0.101,0.675-0.164,1.019c1.105,0.667,1.105,0.667,0.643,1.937
		c0.406,0.112,0.806,0.224,1.306,0.363c-0.063,0.896-0.168,1.795-0.18,2.694c-0.011,0.809,0.154,1.571,0.93,1.721
		c0.254,0.866,0.264,1.785,0.726,2.294c1.037,1.142,1.271,2.498,1.55,3.89c0.043,0.214,0.277,0.4,0.448,0.574
		c0.107,0.108,0.349,0.144,0.384,0.257c0.343,1.116,0.838,2.082,1.938,2.678c0.437,0.235,0.784,0.687,1.087,1.102
		c0.216,0.295,0.24,0.725,0.438,1.04c0.933,1.497,2.028,2.91,2.802,4.482c0.545,1.107,0.741,2.409,0.958,3.647
		c0.392,2.245,0.214,4.415-1.056,6.42c-0.345,0.546-0.278,1.422-0.704,1.832c-1.097,1.06-2.446,0.755-3.669,0.178
		c-2.078-0.979-3.762-2.458-5.158-4.287c-0.771-1.008-1.656-1.928-2.451-2.918c-0.467-0.582-0.896-1.203-1.274-1.847
		c-0.548-0.93-0.969-1.944-2.304-1.996c-0.179-0.007-0.545-0.63-0.478-0.727c0.695-1.005-0.062-1.635-0.529-2.343
		c-0.805-1.218-1.64-2.417-2.414-3.654c-1-1.597-1.989-3.202-2.915-4.842c-0.804-1.423-1.494-2.908-2.268-4.349
		c-0.824-1.533-1.693-3.041-2.53-4.566c-0.605-1.105-1.19-2.222-1.881-3.516c-0.629,0.587-1.415,1.001-1.675,1.632
		c-0.489,1.189-1.223,1.635-2.445,1.588c-0.184-0.007-0.427,0.463-0.562,0.75c-0.065,0.14,0.155,0.458,0.079,0.542
		c-1.072,1.172-2.173,2.316-3.267,3.468c-0.08-0.082-0.16-0.163-0.239-0.245c0.024,0.292,0.05,0.583,0.096,1.118
		c-0.625-0.382-1.069-0.653-1.353-0.827c-0.138,0.723-0.082,1.583-0.466,2.143c-0.421,0.612-1.197,1.053-1.907,1.377
		c-1.017,0.465-1.805,1.088-2.4,2.044c-0.139,0.222-0.754,0.146-1.15,0.206c-0.052-0.106-0.104-0.213-0.155-0.318
		c-0.223,0.549-0.445,1.098-0.711,1.755c-0.059-0.016-0.389-0.101-0.894-0.231c0.049,0.419,0.086,0.73,0.133,1.12
		c-1.201-0.494-1.355,0.468-1.655,1.238c-0.243-0.077-0.459-0.146-0.75-0.237c0,0.361,0,0.661,0,0.984
		c-0.651,0.15-1.578-0.013-1.177,1.145c0.022,0.063-0.456,0.431-0.702,0.432c-0.52,0.003-0.831-0.026-1.002,0.659
		c-0.104,0.411-0.755,0.73-1.215,0.999c-0.873,0.511-1.785,0.956-2.9,1.545c0.009,0.005-0.282-0.147-0.528-0.276
		c-0.115,0.062-0.174,0.073-0.181,0.099c-0.535,1.942-2.838,1.84-3.819,3.285c-0.157,0.232-0.584,0.282-0.887,0.416
		c-0.073-0.096-0.147-0.192-0.221-0.288c1.04-0.93,2.122-1.815,3.107-2.8c0.922-0.921,1.686-2.003,2.622-2.908
		c0.861-0.831,1.863-1.516,2.794-2.275c0.156-0.128,0.259-0.319,0.402-0.466c0.689-0.702,1.381-1.403,2.081-2.095
		c0.201-0.198,0.589-0.334,0.629-0.547c0.28-1.487,1.162-2.17,2.645-2.162c0.128,0.001,0.257-0.097,0.35-0.332
		c-0.427,0.029-0.853,0.06-1.278,0.089c-0.07-0.114-0.141-0.229-0.21-0.344c0.723-0.519,1.449-1.033,2.165-1.562
		c0.171-0.127,0.332-0.285,0.448-0.461c0.26-0.39,0.396-0.927,0.744-1.182c2.421-1.771,3.803-4.39,5.608-6.666
		c1.019-1.284,2.256-2.393,3.347-3.623c0.323-0.364,0.467-0.883,0.721-1.314c0.639-1.083,1.343-2.131,1.916-3.247
		c0.186-0.362,0.196-0.958,0.03-1.334c-1.37-3.106-2.834-6.172-4.2-9.28c-0.839-1.907-1.551-3.871-2.334-5.803
		c-0.351-0.865-0.79-0.992-1.726-0.532c-2.064,1.015-4.227,1.838-6.378,2.664c-0.421,0.161-0.974-0.02-1.556-0.046
		c-0.032,0.282-0.069,0.616-0.104,0.924c-1.902,0.811-3.796,1.599-5.673,2.422c-1.848,0.81-3.695,1.619-5.51,2.499
		c-0.862,0.418-1.314,1.137-1.408,2.18c-0.17,1.907-0.527,3.796-0.762,5.697c-0.063,0.503-0.044,1.052,0.104,1.527
		c0.059,0.189,0.616,0.397,0.869,0.325c2.549-0.731,4.538-2.32,6.441-4.112c1.061-0.998,2.358-1.765,3.612-2.531
		c2.226-1.359,4.5-2.638,6.915-3.768c-0.932,0.833-1.876,1.653-2.787,2.509c-0.224,0.21-0.299,0.574-0.517,0.795
		c-0.436,0.441-0.859,1.025-1.401,1.203c-0.976,0.32-1.42,0.81-1.235,1.559c-0.966,0.987-1.803,1.844-2.728,2.79
		c-0.399-0.073-0.932-0.17-1.47-0.268c-0.363,0.8-0.541,1.393,0.149,2.103c0.711,0.73,0.214,1.896-0.898,2.407
		c0.121-0.576,0.242-1.151,0.367-1.742c-0.629-0.058-1.101-0.102-1.606-0.147c0.244,0.681,0.48,1.337,0.717,1.994
		c-0.136,0.041-0.271,0.082-0.405,0.122c-0.123-0.433-0.245-0.866-0.45-1.59c-0.365,0.456-0.796,0.781-0.743,0.977
		c0.092,0.342,0.43,0.76,0.756,0.866c0.578,0.189,0.672,0.401,0.643,1.015c-0.035,0.747-0.358,1.133-0.973,1.275
		c-0.208,0.049-0.506-0.292-0.908-0.547c0.128,2.493-2.072,3.041-3.382,4.227c-1.007,0.91-1.611,1.725-1.635,3.089
		c-0.036,2.105-0.244,4.207-0.327,6.312c-0.053,1.326,0.051,2.659-0.028,3.981c-0.104,1.745-0.283,3.488-0.52,5.221
		c-0.043,0.314-0.5,0.586-0.792,0.848c-0.14,0.125-0.375,0.146-0.51,0.274c-0.835,0.798-1.682,0.909-2.502,0.063
		c-1.179-1.219-2.227-2.565-3.331-3.856c-0.122-0.144-0.231-0.312-0.384-0.413c-1.663-1.11-3.279-2.311-5.031-3.26
		c-0.654-0.354-1.811-0.434-2.427-0.086c-1.794,1.012-3.664,1.383-5.669,1.383c-1.095,0-2.44-0.914-2.938-1.89
		c-1.411-2.768,0.497-6.354,3.18-6.789c1.083-0.176,2.159-0.392,3.241-0.572c1.591-0.266,2.838-1.12,3.923-2.258
		c0.823-0.864,1.568-1.817,2.477-2.579c0.741-0.621,1.714-0.957,2.508-1.526c1.128-0.808,2.258-1.642,3.238-2.614
		c0.386-0.383,0.5-1.167,0.513-1.773c0.055-2.54,0.023-5.081,0.023-7.909c-0.812,0.35-1.445,0.6-2.06,0.891
		c-2.857,1.354-5.694,2.748-8.565,4.069c-2.909,1.338-5.79,2.773-8.791,3.869c-4.532,1.656-9.226,2.754-14.068,1.629
		c-2.901-0.675-5.243-2.347-6.667-5.075c-0.761-1.457-0.085-4.289,1.296-5.491c0.545-0.475,1.145-0.888,1.966-1.517
		c0.11,1.14,0.146,1.982,0.292,2.807c0.071,0.407,0.243,0.909,0.544,1.146c1.685,1.325,3.587,1.209,5.553,0.764
		c3.65-0.827,6.977-2.515,10.409-3.903c3.053-1.236,5.908-3.004,9.019-4.032c1.61-0.533,2.874-1.628,4.536-2.04
		c1.375-0.341,2.587-1.325,3.885-1.999c0.561-0.291,1.133-0.61,1.739-0.749c0.8-0.182,0.882-0.694,0.794-1.318
		c-0.116-0.818-0.402-1.628-0.405-2.441c-0.004-0.762,0.267-1.524,0.415-2.277c-1.26-0.28-2.526-0.521-3.771-0.848
		c-1.658-0.434-3.074-1.26-4.035-2.742c-0.123-0.189-0.267-0.381-0.442-0.519c-1.351-1.054-1.691-2.567-1.956-4.14
		c-0.128-0.763,0.266-1.021,0.88-1.138c0.313-0.059,0.638-0.088,0.954-0.076c2.255,0.076,4.526,0.024,6.757,0.299
		c1.646,0.201,3.319,0.655,4.826,1.337c1.012,0.458,1.946,1.383,2.579,2.325c1.452,2.159-0.04,5.049-2.694,5.476
		c-0.335,0.054-0.671,0.104-1.189,0.184c1.242,0.904,2.268,1.726,3.367,2.43c1.281,0.821,2.471-0.02,3.616-0.439
		c3.3-1.211,6.569-2.507,9.842-3.792c2.448-0.962,4.883-1.958,7.548-3.029c-0.896-1.973-1.629-3.79-2.531-5.52
		c-0.82-1.571-1.949-2.986-2.71-4.581c-0.688-1.442-1.061-3.033-1.609-4.668c0.421-0.038,0.745-0.173,0.938-0.068
		c2.364,1.284,4.337,2.933,5.522,5.464c0.526,1.124,1.476,2.043,2.177,3.093c0.633,0.946,1.189,1.944,1.62,2.657
		c1.065,0.225,2.028,0.193,2.709,0.615c1.871,1.162,4.048,1.325,6.026,2.1c0.073,0.028,0.184,0.006,0.229,0.053
		c0.512,0.525,1.014,1.06,1.519,1.591c-0.527,0.417-1.006,0.928-1.592,1.232c-1.333,0.69-2.718,1.28-4.082,1.912
		c-0.806,0.373-0.955,0.905-0.563,1.727c1.427,2.991,2.815,6.001,4.193,9.016c0.422,0.923,0.753,1.887,1.146,2.823
		c0.146,0.347,0.352,0.669,0.643,1.212c0.697-0.954,1.341-1.694,1.823-2.527c0.794-1.371,1.395-2.858,2.242-4.191
		c0.643-1.011,0.444-1.863-0.027-2.779c-0.686-1.333-0.414-1.845,1.003-2.144c1.447-0.306,2.831-0.377,4.324-0.073
		c1.824,0.372,2.969,1.685,3.911,2.902c0.597,0.771,0.198,2.399,0.046,3.618c-0.062,0.488-0.625,0.943-1.021,1.354
		c-1.228,1.274-2.569,2.447-3.709,3.793c-1.605,1.895-3.099,3.888-4.564,5.895c-0.241,0.329-0.3,1.068-0.093,1.402
		c1.536,2.483,3.158,4.913,4.757,7.357c0.953,1.457,1.896,2.921,2.881,4.355c0.179,0.261,0.56,0.564,0.813,0.536
		c0.22-0.023,0.502-0.466,0.563-0.764c0.186-0.887,0.329-1.789,0.393-2.692c0.125-1.765,0.243-3.532,0.257-5.3
		c0.015-1.942-0.122-3.886-0.131-5.829c-0.003-0.705,0.16-1.414,0.286-2.114c0.011-0.062,0.313-0.071,0.479-0.105
		C228.778,149.845,228.81,150.05,228.842,150.254z M169.688,170.813l2.75,0.715c1.813,1.16,0.567,0.611,1.527,1.061
		c0.138-1.833,0.27-3.601,0.381-5.095c-0.788-0.275-1.011,0.319-3.434-0.526c-0.261,0.953-2.035,1.931-4.287,3.596"/>
	<path fill-rule="evenodd" clip-rule="evenodd" fill="#FFFFFF" d="M188.198,100.139c-1.056,0.302-2.115,0.513-3.101,0.91
		c-1.098,0.441-2.102,1.109-3.19,1.574c-1.731,0.74-3.498,0.705-4.971-0.516c-1.564-1.297-2.148-3.085-1.946-5.133
		c0.131-1.32,0.106-2.658,0.294-3.969c0.066-0.466,0.526-0.896,0.858-1.298c0.264-0.318,0.608-0.569,0.917-0.851
		c-0.362-0.257-0.711-0.533-1.087-0.766c-3.844-2.373-6.01-4.747-4.775-9.703c0.554-2.223,0.578-2.134,2.65-0.898
		c1.92,1.145,3.972,1.634,6.179,0.506c0.772-0.395,1.789-0.285,2.616-0.605c2.545-0.987,5.047-2.086,7.577-3.111
		c1.669-0.675,3.472-1.104,5.009-1.997c1.711-0.994,3.657-1.999,3.706-4.59c0.729,0.274,1.325,0.59,1.96,0.722
		c1.939,0.401,3.913,0.652,5.834,1.122c0.965,0.236,1.922,0.713,2.727,1.296c0.334,0.242,0.261,1.046,0.313,1.3
		c-3.92,1.791-7.666,3.54-11.446,5.213c-1.989,0.881-4.065,1.57-6.048,2.465c-0.786,0.355-1.425,1.034-2.339,1.722
		c1.236,0.418,2.133,0.957,3.04,0.975c1.382,0.027,2.303,0.692,3.084,1.627c0.984,1.178,2.726,1.089,3.493-0.256
		c0.097-0.17,0.223-0.333,0.366-0.465c0.597-0.55,1.111-1.091,0.3-1.879c-0.075-0.073,0.053-0.354,0.106-0.65
		c1.982,0.758,3.924,1.425,5.299,3.018c0.379,0.439,0.396,1.191,0.569,1.768c0.367,0.08,1.164,0.143,1.175,0.272
		c0.056,0.675,0.044,1.415-0.186,2.043c-0.644,1.756-1.675,3.155-3.522,3.934c-1.892,0.797-3.748,1.729-5.484,2.818
		c-0.735,0.46-1.193,1.434-1.652,2.244c-0.44,0.778-0.762,1.634-1.051,2.483c-0.128,0.376-0.048,0.823-0.063,1.237
		c0.375,0.007,0.808,0.141,1.115,0c1.889-0.863,3.761-1.765,5.596-2.735c0.157-0.083,0.14-0.845-0.045-1.132
		c-0.212-0.329-0.7-0.482-1.068-0.713c0.092-0.126,0.184-0.252,0.276-0.378c0.173-0.021,0.401-0.123,0.51-0.05
		c2.092,1.425,4.596,1.383,6.913,2.002c0.944,0.252,1.868,0.729,2.679,1.285c0.577,0.396,0.55,0.988,0.185,1.761
		c-1.282,2.707-3.781,3.838-6.243,4.857c-4.314,1.788-8.743,3.298-13.122,4.931c-3.294,1.229-6.594,2.443-9.872,3.712
		c-1.187,0.46-2.292,1.132-3.481,1.581c-3.77,1.424-8.158-0.15-8.586-4.646c-0.095-0.988,0.12-1.95,0.962-2.685
		c0.371-0.324,0.666-0.792,0.86-1.252c0.486-1.155,1.205-1.519,2.416-1.138c1.087,0.341,2.201,0.609,3.268,1.005
		c1.565,0.582,2.922,0.105,4.3-0.604c0.75-0.386,1.588-0.6,2.38-0.905c1.667-0.644,2.5-2.021,3.158-3.568
		C188.496,101.945,188.51,101.951,188.198,100.139z M178.611,94.627c0.077,0.192,0.155,0.384,0.233,0.576
		c0.675,0,1.408,0.174,2.013-0.031c2.089-0.709,4.13-1.56,6.197-2.333c0.389-0.146,0.815-0.244,1.229-0.258
		c1.758-0.062,2.884-1.739,1.966-3.162c-0.927-1.436-1.076-2.893-0.716-4.479c0.088-0.391,0.214-0.773,0.322-1.159
		c-0.106-0.083-0.213-0.165-0.32-0.248C185.604,86.943,181.279,89.962,178.611,94.627z"/>
	<path fill-rule="evenodd" clip-rule="evenodd" fill="#FFFFFF" d="M117.594,131.686c0.902-0.075,1.475-0.104,2.042-0.171
		c1.672-0.197,2.661,0.558,2.92,2.198c0.111,0.703,0.356,1.386,0.46,2.089c0.22,1.495,0.034,2.854-1.24,3.922
		c-0.629,0.526-1.146,1.205-1.644,1.867c-1.199,1.599-2.423,3.184-3.514,4.854c-1.261,1.934-3.008,3.346-5.019,4.245
		c-2.005,0.896-4.306-0.726-5.126-2.784c-1.092-2.74-0.649-5.511-0.687-8.29c-0.015-1.104-0.267-2.202-0.337-3.308
		c-0.045-0.734,0.04-1.477,0.068-2.283c2.444,0.633,2.373,0.604,3.226-1.532c0.87-2.184,1.979-4.272,2.816-6.467
		c0.317-0.834,0.236-1.851,0.179-2.775c-0.012-0.208-0.782-0.623-1.029-0.521c-1.634,0.677-3.19,1.542-4.83,2.199
		c-1.495,0.599-3.049,1.067-4.606,1.484c-0.745,0.198-1.034,0.476-0.814,1.233c0.604,2.08,1.315,4.14,1.75,6.254
		c0.43,2.097,0.687,4.245,0.813,6.384c0.119,2.022,0.05,4.065-0.092,6.089c-0.076,1.071-0.382,2.158-0.771,3.167
		c-0.427,1.109-1.864,1.036-2.577,0.33c-0.722-0.717-1.257-1.627-1.843-2.474c-0.556-0.804-3.882-4.546-4.404-5.35
		c1.556-2.145,1.435-4.576,1.035-7.086c-0.263-1.658-0.338-3.346-0.551-5.013c-0.263-2.071-1.031-3.959-2.468-5.483
		c-1.029-1.092-2.231-2.018-3.309-3.064c-0.209-0.203-0.372-0.713-0.261-0.93c0.189-0.37,0.563-0.747,0.946-0.903
		c2.066-0.835,6.841,0.611,8.838,1.001c0.539,0.104,1.168-0.161,1.734-0.329c0.521-0.154,1.017-0.401,1.52-0.616
		c2.365-1.014,4.729-2.028,7.093-3.047c0.541-0.232,1.055-0.583,1.617-0.696c0.885-0.177,1.616-0.364,1.688-1.479
		c0.007-0.117,0.757-0.256,1.164-0.264c0.758-0.016,1.526,0.149,2.274,0.076c2.162-0.208,4.318,1.708,6.229,3.247
		c1.21,0.974,1.479,2.337,0.795,3.757c-0.241,0.502-0.269,1.109-0.371,1.673c-0.056,0.312,0.014,0.662-0.103,0.94
		c-0.938,2.247-1.902,4.483-2.874,6.716C118.211,130.825,118.001,131.063,117.594,131.686z"/>
	<path fill-rule="evenodd" clip-rule="evenodd" fill="#FFFFFF" d="M187.349,61.887c-0.42,1.45-1.04,2.691-1.066,3.945
		c-0.025,1.216,0.559,2.444,0.876,3.667c0.2,0.063,0.4,0.125,0.602,0.188c0.4-0.528,0.721-1.151,1.216-1.567
		c2.008-1.687,4.166-3.206,6.082-4.988c1.566-1.457,2.886-3.184,4.279-4.822c0.843-0.992,1.591-2.064,2.429-3.06
		c0.955-1.134,0.79-2.482-0.393-3.37c-0.33-0.248-0.492-0.718-0.731-1.086c0.36-0.156,0.725-0.455,1.08-0.444
		c2.385,0.073,4.843-0.104,6.82,1.666c1.082,0.968,1.738,3.36,1.249,4.699c-0.078,0.214-0.222,0.422-0.382,0.586
		c-1.164,1.191-2.247,2.487-3.537,3.523c-1.524,1.223-3.219,2.237-4.865,3.303c-0.809,0.524-1.646,1.021-2.521,1.419
		c-1.101,0.501-2.277,0.835-3.375,1.34c-1.006,0.463-1.942,1.074-2.93,1.58c-0.183,0.094-0.475-0.051-0.696,0.001
		c-0.307,0.071-0.605,0.202-0.889,0.345c-0.573,0.292-1.189,0.54-1.683,0.937c-0.396,0.319-0.874,0.816-0.906,1.263
		c-0.164,2.298-2.515,3.68-4.562,2.543c-1.094-0.607-2.236-1.227-3.118-2.086c-0.955-0.932-1.672-2.123-2.421-3.248
		c-0.957-1.436-1.851-2.915-2.752-4.387c-0.229-0.375-0.387-0.795-0.754-1.565c1.201,0.183,2.037,0.271,2.856,0.441
		c1.801,0.375,3.525,1.335,5.441,0.8c1.057-0.295,2.073-0.733,3.109-1.101C186.25,62.25,186.697,62.106,187.349,61.887z"/>
	<path fill-rule="evenodd" clip-rule="evenodd" fill="#FFFFFF" d="M224.602,110.226c1.785,0.307,3.825,0.179,5.285,1.036
		c1.571,0.924,3.135,0.355,4.68,0.872c2.548,0.852,4.748,2.17,6.371,4.098c0.999,1.187,1.89,2.877,1.299,4.822
		c-1.095,3.604-3.18,4.772-7.252,4.092c-3.467-0.58-5.86-2.544-7.724-5.381c-0.694-1.057-1.643-1.953-2.282-3.036
		c-0.954-1.613-1.713-3.327-2.114-5.193c-0.187-0.871-0.031-1.22,0.871-1.148c0.278,0.021,0.56,0.003,0.839,0.003
		C224.583,110.335,224.593,110.28,224.602,110.226z"/>
	<path fill-rule="evenodd" clip-rule="evenodd" fill="#FFFFFF" d="M197.698,171.527"/>
</g>
</svg>
