<?xml version="1.0" encoding="utf-8"?>
<!-- Generator: Adobe Illustrator 21.0.0, SVG Export Plug-In . SVG Version: 6.00 Build 0)  -->
<svg version="1.1" baseProfile="basic" xmlns="http://www.w3.org/2000/svg" xmlns:xlink="http://www.w3.org/1999/xlink" x="0px"
	 y="0px" viewBox="0 0 38 38" xml:space="preserve">
<g id="map">
</g>
<g id="底" display="none">
</g>
<g id="圖層_4">
	<g>
		<g>
			<path fill="#A2C66E" d="M19,33c-7.7,0-14-6.3-14-14S11.3,5,19,5s14,6.3,14,14S26.7,33,19,33z"/>
			<path fill="#FFFFFF" d="M19,6c7.2,0,13,5.8,13,13c0,7.2-5.8,13-13,13c0,0,0,0,0,0c-7.2,0-13-5.8-13-13C6,11.8,11.8,6,19,6L19,6
				 M19,4C10.7,4,4,10.7,4,19c0,4,1.6,7.8,4.4,10.6C11.2,32.4,15,34,19,34c8.3,0,15-6.7,15-15c0-4-1.6-7.8-4.4-10.6S23,4,19,4L19,4z
				"/>
		</g>
		<path fill="#FFFFFF" d="M23.8,25.8c-4.1,0-5.4,0-9.6,0c0-0.6,0-1.3,0-1.9c0.5,0-0.5,0,0,0c0-0.2,0-0.3,0-0.4c0-3.6,0-7.1,0-10.7
			c0-0.1,0-0.2,0-0.3c0-0.3,0.2-0.4,0.5-0.5c0.2,0,0.3,0,0.5,0c2.1,0,4.8,0,8.1,0c0.4,0,0.5,0.2,0.5,0.5c0,0.1,0,0.1,0,0.2
			c0,3.6,0,7.1,0,10.7c0,0.1,0,0.2,0,0.4c0.5,0-0.5,0,0,0C23.8,24.6,23.8,25.2,23.8,25.8z M19.9,24.7c0-1.3,0-2.6,0-3.8
			c-0.6,0-1.2,0-1.8,0c0,1.3,0,2.6,0,3.8C18.7,24.7,19.3,24.7,19.9,24.7z M19.9,16.6c0-0.7,0-1.4,0-2.1c-0.6,0-1.2,0-1.8,0
			c0,0.7,0,1.4,0,2.1C18.7,16.6,19.3,16.6,19.9,16.6z M19.9,19.6c0-0.7,0-1.4,0-2.1c-0.6,0-1.2,0-1.8,0c0,0.7,0,1.4,0,2.1
			C18.7,19.6,19.3,19.6,19.9,19.6z M15.7,16.6c0.3,0,0.7,0,1,0c0.1,0,0.1-0.1,0.1-0.2c0-0.6,0-1.2,0-1.8c0-0.1-0.1-0.2-0.2-0.2
			c-0.2,0-0.5,0-0.7,0c-0.1,0-0.2,0.1-0.2,0.2C15.7,15.3,15.7,15.9,15.7,16.6z M22.3,16.6c0-0.7,0-1.4,0-2c0,0-0.1-0.1-0.2-0.1
			c-0.2,0-0.5,0-0.7,0c-0.2,0-0.2,0.1-0.2,0.2c0,0.3,0,0.5,0,0.8c0,0.4,0,0.8,0,1.2C21.6,16.6,21.9,16.6,22.3,16.6z M15.7,17.5
			c0,0.7,0,1.4,0,2c0,0,0.1,0.1,0.2,0.1c0.2,0,0.5,0,0.7,0c0.2,0,0.2-0.1,0.2-0.2c0-0.2,0-0.5,0-0.7c0-0.4,0-0.8,0-1.2
			C16.4,17.5,16.1,17.5,15.7,17.5z M22.3,17.5c-0.3,0-0.6,0-0.9,0c-0.2,0-0.2,0.1-0.2,0.2c0,0.4,0,0.9,0,1.3c0,0.6,0,0.6,0.6,0.6
			c0.5,0,0.5,0,0.5-0.5C22.3,18.6,22.3,18.1,22.3,17.5z M16.8,20.8c-0.2,0-0.3,0-0.4,0c-0.7,0-0.7,0-0.7,0.7c0,0,0,0,0,0
			c0.1,0.1,0.1,0.2,0.2,0.2c0.3,0,0.5,0,0.8,0c0.1,0,0.2-0.1,0.2-0.1C16.8,21.3,16.8,21.1,16.8,20.8z M21.7,21.7
			c0.6,0,0.6,0,0.6-0.6c0,0,0-0.1,0-0.1c0-0.1,0-0.2-0.2-0.2c-0.2,0-0.4,0-0.6,0c-0.4,0-0.4,0-0.4,0.4
			C21.2,21.8,21.1,21.7,21.7,21.7z"/>
	</g>
</g>
<g id="圖層_3">
</g>
</svg>
