<?xml version="1.0" encoding="utf-8"?>
<!-- Generator: Adobe Illustrator 21.0.0, SVG Export Plug-In . SVG Version: 6.00 Build 0)  -->
<svg version="1.1" baseProfile="basic" xmlns="http://www.w3.org/2000/svg" xmlns:xlink="http://www.w3.org/1999/xlink" x="0px"
	 y="0px" viewBox="0 0 77 77" xml:space="preserve">
<g id="map">
</g>
<g id="底" display="none">
</g>
<g id="圖層_4">
	<g>
		<g>
			<g>
				<path fill="#A2C66E" d="M45.5,55.2c-12.4,0-16.4,0-28.8,0c0-1.9,0-3.8,0-5.8c1.5,0-1.4,0,0,0c0-0.5,0-0.8,0-1.1
					c0-10.7,0-21.4,0-32c0-0.3,0-0.5,0-0.8c0.1-0.9,0.6-1.3,1.5-1.4c0.5,0,1,0,1.4,0c8.1,0,16.2,0,24.3,0c1.1,0,1.6,0.5,1.6,1.6
					c0,0.2,0,0.4,0,0.6c0,10.7,0,21.4,0,32c0,0.3,0,0.7,0,1.1c1.5,0-1.4,0,0,0C45.5,51.5,45.5,53.3,45.5,55.2z M33.8,51.7
					c0-3.9,0-7.7,0-11.5c-1.8,0-3.6,0-5.4,0c0,3.9,0,7.7,0,11.5C30.2,51.7,32,51.7,33.8,51.7z M33.8,27.4c0-2.2,0-4.3,0-6.4
					c-1.8,0-3.6,0-5.4,0c0,2.2,0,4.3,0,6.4C30.2,27.4,32,27.4,33.8,27.4z M33.8,36.5c0-2.2,0-4.3,0-6.4c-1.8,0-3.6,0-5.4,0
					c0,2.2,0,4.3,0,6.4C30.2,36.5,32,36.5,33.8,36.5z M21.1,27.5c1,0,2,0,2.9,0c0.2,0,0.4-0.3,0.4-0.5c0-1.8,0-3.6,0-5.5
					c0-0.4-0.2-0.6-0.6-0.5c-0.7,0-1.5,0-2.2,0c-0.2,0-0.5,0.3-0.5,0.5C21.1,23.4,21.1,25.4,21.1,27.5z M41,27.4c0-2.1,0-4.1,0-6.1
					c0-0.1-0.3-0.4-0.5-0.4c-0.7,0-1.4,0-2.2,0c-0.5,0-0.6,0.2-0.6,0.7c0,0.8,0,1.6,0,2.3c0,1.1,0,2.3,0,3.5
					C38.8,27.4,39.9,27.4,41,27.4z M21.1,30.1c0,2.1,0,4.1,0,6.1c0,0.1,0.3,0.4,0.5,0.4c0.7,0,1.4,0,2.2,0c0.5,0,0.7-0.2,0.6-0.7
					c0-0.7,0-1.4,0-2.2c0-1.2,0-2.4,0-3.6C23.3,30.1,22.3,30.1,21.1,30.1z M41,30.1c-1,0-1.8,0-2.7,0c-0.5,0-0.7,0.2-0.6,0.7
					c0,1.3,0,2.6,0,3.9c0,1.9,0,1.9,1.9,1.9c1.4,0,1.4,0,1.4-1.5C41,33.5,41,31.8,41,30.1z M24.5,40.1c-0.5,0-0.9,0-1.3,0
					c-2.1,0-2.1,0-2,2.1c0,0,0,0.1,0,0.1c0.2,0.2,0.3,0.5,0.5,0.5c0.8,0.1,1.5,0.1,2.3,0c0.2,0,0.5-0.3,0.5-0.4
					C24.5,41.7,24.5,40.9,24.5,40.1z M39.3,42.8c1.8,0,1.8,0,1.8-1.8c0-0.1,0-0.3,0-0.4c0-0.4-0.1-0.6-0.6-0.6c-0.6,0-1.1,0-1.7,0
					c-1.1,0-1.1,0-1.1,1.1C37.7,43.1,37.4,42.8,39.3,42.8z"/>
			</g>
		</g>
		<g id="PLR7yg_14_">
			<g>
				<path fill="#A2C66E" d="M53.4,65.2c-7.2,0-13.2-5.9-13.3-13.1C40,44.8,46,38.8,53.3,38.7c7.3,0,13.3,6,13.3,13.2
					C66.5,59.2,60.6,65.1,53.4,65.2z M64.1,51.9c0-6-4.9-10.8-10.8-10.8c-6,0-10.8,4.9-10.8,10.8c0,6,4.9,10.8,10.8,10.8
					C59.3,62.7,64.1,57.9,64.1,51.9z"/>
				<path fill="#FFFFFF" d="M64.1,51.9c0,6-4.8,10.8-10.8,10.8c-6,0-10.8-4.8-10.8-10.8c0-6,4.8-10.8,10.8-10.8
					C59.3,41.1,64.1,46,64.1,51.9z M52.1,53.1c-0.5-0.6-1-1.2-1.4-1.7c-0.5-0.6-1.2-0.7-1.8-0.2c-0.6,0.6-0.5,1.3,0.1,1.9
					c0.7,0.7,1.4,1.4,2.1,2.1c0.8,0.8,1.4,0.8,2.2,0c1.5-1.5,3-3,4.5-4.5c0.6-0.6,1-1.2,0.3-1.9c-0.7-0.8-1.4-0.4-2,0.2
					C54.9,50.3,53.6,51.6,52.1,53.1z"/>
				<path fill="#FFFFFF" d="M52.1,53.1c-0.5,0.5,2.4-2.4,4.1-4.1c0.6-0.6,1.3-1,2-0.2c0.7,0.7,0.3,1.4-0.3,1.9c-1.5,1.5-3,3-4.5,4.5
					c-0.8,0.8-1.4,0.8-2.2,0c-0.7-0.7-1.4-1.4-2.1-2.1c-0.6-0.6-0.7-1.3-0.1-1.9c0.6-0.6,1.2-0.4,1.8,0.2
					C51.2,51.9,51.6,52.5,52.1,53.1z"/>
			</g>
		</g>
	</g>
</g>
<g id="圖層_3">
</g>
</svg>
