<?xml version="1.0" encoding="utf-8"?>
<!-- Generator: Adobe Illustrator 21.0.0, SVG Export Plug-In . SVG Version: 6.00 Build 0)  -->
<svg version="1.1" baseProfile="basic" xmlns="http://www.w3.org/2000/svg" xmlns:xlink="http://www.w3.org/1999/xlink" x="0px"
	 y="0px" viewBox="0 0 77 77" xml:space="preserve">
<g id="map">
</g>
<g id="底" display="none">
</g>
<g id="圖層_4">
	<g>
		<g>
			<g>
				<g>
					<g>
						<path fill="#F4415E" d="M39,33.4l-10.4-7l0,7l-5.4-5.8l-1.5-11.3l-4.2,0l0,11.5l-2.2,0l-3.8,5.6l0,14c0,1.9,1.5,3.5,3.5,3.5
							l31.3,0c1.9,0,3.5-1.5,3.5-3.5l0-14l-10.7-7L39,33.4z M25.6,42.9l-5.9,0l0-3.4l5.9,0L25.6,42.9z M36,42.9h-5.9l0-3.4l5.9,0
							L36,42.9z M39.9,39.5l6,0l0,3.4h-6L39.9,39.5z"/>
					</g>
				</g>
			</g>
		</g>
		<g id="PLR7yg_42_">
			<g>
				<path fill="#F4415E" d="M53.4,65.2c-7.2,0-13.2-5.9-13.3-13.1C40,44.8,46,38.8,53.3,38.7c7.3,0,13.3,6,13.3,13.2
					C66.5,59.2,60.6,65.1,53.4,65.2z M64.1,51.9c0-6-4.9-10.8-10.8-10.8c-6,0-10.8,4.9-10.8,10.8c0,6,4.9,10.8,10.8,10.8
					C59.3,62.7,64.1,57.9,64.1,51.9z"/>
				<path fill="#FFFFFF" d="M64.1,51.9c0,6-4.8,10.8-10.8,10.8c-6,0-10.8-4.8-10.8-10.8c0-6,4.8-10.8,10.8-10.8
					C59.3,41.1,64.1,46,64.1,51.9z M52.1,53.1c-0.5-0.6-1-1.2-1.4-1.7c-0.5-0.6-1.2-0.7-1.8-0.2c-0.6,0.6-0.5,1.3,0.1,1.9
					c0.7,0.7,1.4,1.4,2.1,2.1c0.8,0.8,1.4,0.8,2.2,0c1.5-1.5,3-3,4.5-4.5c0.6-0.6,1-1.2,0.3-1.9c-0.7-0.8-1.4-0.4-2,0.2
					C54.9,50.3,53.6,51.6,52.1,53.1z"/>
				<path fill="#F4415E" d="M52.1,53.1c1.5-1.5,2.8-2.8,4.1-4.1c0.6-0.6,1.3-1,2-0.2c0.7,0.7,0.3,1.4-0.3,1.9c-1.5,1.5-3,3-4.5,4.5
					c-0.8,0.8-1.4,0.8-2.2,0c-0.7-0.7-1.4-1.4-2.1-2.1c-0.6-0.6-0.7-1.3-0.1-1.9c0.6-0.6,1.2-0.4,1.8,0.2
					C51.2,51.9,51.6,52.5,52.1,53.1z"/>
			</g>
		</g>
	</g>
</g>
<g id="圖層_3">
</g>
</svg>
