<?xml version="1.0" encoding="utf-8"?>
<!-- Generator: Adobe Illustrator 21.0.0, SVG Export Plug-In . SVG Version: 6.00 Build 0)  -->
<svg version="1.1" baseProfile="basic" xmlns="http://www.w3.org/2000/svg" xmlns:xlink="http://www.w3.org/1999/xlink" x="0px"
	 y="0px" viewBox="0 0 38 38" xml:space="preserve">
<g id="map">
</g>
<g id="底" display="none">
</g>
<g id="圖層_4">
	<g>
		<g>
			<path fill="#F4415E" d="M19,33c-7.7,0-14-6.3-14-14S11.3,5,19,5s14,6.3,14,14S26.7,33,19,33z"/>
			<path fill="#FFFFFF" d="M19,6c7.2,0,13,5.8,13,13c0,7.2-5.8,13-13,13c0,0,0,0,0,0c-7.2,0-13-5.8-13-13C6,11.8,11.8,6,19,6L19,6
				 M19,4C10.7,4,4,10.7,4,19c0,4,1.6,7.8,4.4,10.6C11.2,32.4,15,34,19,34c8.3,0,15-6.7,15-15c0-4-1.6-7.8-4.4-10.6S23,4,19,4L19,4z
				"/>
		</g>
		<g>
			<path fill="#FFFFFF" d="M22.1,18.1l-3.5-2.3l0,2.3l-1.8-1.9l-0.5-3.8l-1.4,0l0,3.8h-0.7L13,18.1l0,4.7c0,0.6,0.5,1.1,1.1,1.1
				l10.4,0c0.6,0,1.1-0.5,1.1-1.1l0-4.7l-3.5-2.3L22.1,18.1z M17.7,21.3l-2,0l0-1.1l2,0L17.7,21.3z M21.1,21.3l-2,0l0-1.1l2,0
				L21.1,21.3z M22.5,20.1l2,0l0,1.1l-2,0L22.5,20.1z"/>
		</g>
	</g>
</g>
<g id="圖層_3">
</g>
</svg>
