<?xml version="1.0" encoding="utf-8"?>
<!-- Generator: Adobe Illustrator 16.0.0, SVG Export Plug-In . SVG Version: 6.00 Build 0)  -->
<!DOCTYPE svg PUBLIC "-//W3C//DTD SVG 1.1//EN" "http://www.w3.org/Graphics/SVG/1.1/DTD/svg11.dtd">
<svg version="1.1" id="Layer_1" xmlns="http://www.w3.org/2000/svg" xmlns:xlink="http://www.w3.org/1999/xlink" x="0px" y="0px"
	 width="300px" height="300px" viewBox="0 0 300 300" enable-background="new 0 0 300 300" xml:space="preserve">
<g id="底_x5F_被選取">
	<circle fill="#A38A77" stroke="#C30D23" stroke-width="3.5" cx="150" cy="150" r="130"/>
</g>
<g id="底">
	<circle fill="#5561F2" stroke="#FFFFFF" stroke-width="12" cx="150" cy="150" r="130"/>
</g>
<g id="txt">
	<g id="f27ANs_9_">
		<g>
			<path fill="#FFFFFF" d="M105,223h9c3-1,3-4,3-6c0-4,0-8,0-13h64c0,2,0,4,0,6s0,5,0,7s1,4,3,6h10c3-1,3-3,3-6c0-5,0-9,0-14
				c0-1,0-1,1-2c5-3,7-8,7-13c0-31,0-61,0-92c0-8-6-15-15-16c-15-1-30-3-45-2c-11,0-21,1-32,2c-3,0-6,0-9,1c-5,1-10,7-10,14
				c0,31,0,62,0,93c0,6,3,10,7,13c1,1,1,1,1,2c0,4,0,9,0,13C102,219,103,221,105,223z M167,168c2,0,4,2,3,4c0,1-2,2-3,2
				c-5,0-11,0-16,0s-11,0-16,0c-1,0-1,0-2,0s-2-2-2-3s1-2,3-3c2,0,3,0,5,0c4,0,8,0,13,0l0,0C156,168,161,168,167,168z M190,182
				c-4,0-8-3-8-8c0-4,3-8,8-8c4,0,7,4,7,8C198,179,194,182,190,182z M122,91c1-2,2-3,4-3c3,0,6,0,10,0c12,0,25,0,37,0c3,0,5,2,5,4
				c0,3-2,5-5,5c-8,0-16,0-23,0c-8,0-16,0-23,0C123,97,121,94,122,91z M100,136c0-11,0-11,0-22c0-4,3-7,7-7c14,0,29,0,43,0
				s28,0,43,0c4,0,8,3,8,7c0,11,0,11,0,22c0,5-3,7-8,7c-28,0-57,0-85,0C103,143,100,140,100,136z M102,175c0-4,3-8,8-8c4,0,8,3,8,8
				c0,4-4,8-8,8C106,182,102,179,102,175z"/>
		</g>
	</g>
</g>
<g id="icon_1_">
</g>
</svg>
