<?xml version="1.0" encoding="utf-8"?>
<!-- Generator: Adobe Illustrator 16.0.0, SVG Export Plug-In . SVG Version: 6.00 Build 0)  -->
<!DOCTYPE svg PUBLIC "-//W3C//DTD SVG 1.1//EN" "http://www.w3.org/Graphics/SVG/1.1/DTD/svg11.dtd">
<svg version="1.1" id="Layer_1" xmlns="http://www.w3.org/2000/svg" xmlns:xlink="http://www.w3.org/1999/xlink" x="0px" y="0px"
	 width="300px" height="300px" viewBox="0 0 300 300" enable-background="new 0 0 300 300" xml:space="preserve">
<g id="底_x5F_被選取">
	<circle fill="#A38A77" stroke="#C30D23" stroke-width="3.5" cx="150" cy="150" r="130"/>
</g>
<g id="底">
	<circle fill="#43DD43" stroke="#FFFFFF" cx="150" cy="150" r="130"/>
</g>
<rect x="108" y="105" fill="#43DD43" width="24" height="24"/>
<rect x="145" y="105" fill="#43DD43" width="24" height="24"/>
<rect x="108" y="142" fill="#43DD43" width="24" height="24"/>
<rect x="145" y="142" fill="#43DD43" width="24" height="24"/>
<g id="icon_1_">
</g>
<polygon fill="#FFFFFF" points="83.949,118 149,75.5 214.052,118 "/>
<path fill="#FFFFFF" d="M201.5,213.75c0-8.729,0-17.807,0-24.75v-76h-103v76c0,6.943,0,16.021,0,24.75H201.5z M156.5,133h24v24h-24
	V133z M156.5,170h24v24h-24V170z M119.5,133h24v24h-24V133z M119.5,170h24v24h-24V170z"/>
</svg>
