<?xml version="1.0" encoding="utf-8"?>
<!-- Generator: Adobe Illustrator 16.0.0, SVG Export Plug-In . SVG Version: 6.00 Build 0)  -->
<!DOCTYPE svg PUBLIC "-//W3C//DTD SVG 1.1//EN" "http://www.w3.org/Graphics/SVG/1.1/DTD/svg11.dtd">
<svg version="1.1" id="Layer_1" xmlns="http://www.w3.org/2000/svg" xmlns:xlink="http://www.w3.org/1999/xlink" x="0px" y="0px"
	 width="300px" height="300px" viewBox="0 0 300 300" enable-background="new 0 0 300 300" xml:space="preserve">
<path fill="#F79494" d="M252.49,124.225c0,56.603-27.482,84.851-102.49,167.775C67.455,208.127,47.509,180.828,47.509,124.225
	S93.396,21.736,150,21.736C206.604,21.736,252.49,67.622,252.49,124.225z"/>
<circle fill="#F1F2F2" cx="150" cy="118.167" r="76.166"/>
<path fill="#2E96D3" d="M194.951,72.513c0-2.899-3.619-6.519-8.085-6.519h-73.237c-4.464,0-8.085,3.62-8.085,6.519l-4.331,55.722
	v18.142v10.154h5.173v7.994c0,3.299,3.126,5.975,6.984,5.975c3.856,0,6.984-2.676,6.984-5.975v-7.994h60.014v7.994
	c0,3.299,3.125,5.975,6.983,5.975c3.857,0,6.983-2.676,6.983-5.975v-7.994h5.174v-10.154v-18.142L194.951,72.513z M131.219,73.667
	h38.285c1.477,0,2.673,1.197,2.673,2.674c0,1.476-1.196,2.673-2.673,2.673h-38.285c-1.476,0-2.673-1.197-2.673-2.673
	C128.547,74.865,129.744,73.667,131.219,73.667z M111.48,94.584c0-3.702,2.263-6.702,5.053-6.702h67.152
	c2.791,0,5.053,3,5.053,6.702l0.684,21.098c0,3.702-2.263,6.703-5.052,6.703h-68.014c-2.791,0-5.053-3.001-5.053-6.703
	L111.48,94.584z M119.708,146.01c-4,0-7.242-3.242-7.242-7.242c0-3.998,3.242-7.242,7.242-7.242s7.242,3.244,7.242,7.242
	C126.951,142.768,123.708,146.01,119.708,146.01z M173.771,138.768c0-4,3.242-7.243,7.242-7.243s7.243,3.243,7.243,7.243
	s-3.243,7.242-7.243,7.242S173.771,142.768,173.771,138.768z"/>
<line fill="none" stroke="#F79494" stroke-width="15" stroke-miterlimit="10" x1="89.361" y1="57.247" x2="211.361" y2="179.246"/>
</svg>
