<?xml version="1.0" encoding="utf-8"?>
<!-- Generator: Adobe Illustrator 16.0.0, SVG Export Plug-In . SVG Version: 6.00 Build 0)  -->
<!DOCTYPE svg PUBLIC "-//W3C//DTD SVG 1.1//EN" "http://www.w3.org/Graphics/SVG/1.1/DTD/svg11.dtd">
<svg version="1.1" id="Layer_1" xmlns="http://www.w3.org/2000/svg" xmlns:xlink="http://www.w3.org/1999/xlink" x="0px" y="0px"
	 width="300px" height="300px" viewBox="0 0 300 300" enable-background="new 0 0 300 300" xml:space="preserve">
<g>
	<path fill="#68331E" d="M150.729,284.457C76.99,284.457,17,224.467,17,150.729S76.99,17,150.729,17s133.729,59.99,133.729,133.729
		C284.457,224.467,224.466,284.457,150.729,284.457z"/>
	<path fill="#FFFFFF" d="M150.729,27.5c67.949,0,123.229,55.28,123.229,123.229c-0.001,67.948-55.281,123.229-123.229,123.229
		S27.5,218.677,27.5,150.729S82.78,27.5,150.729,27.5 M150.729,6.5C71.201,6.5,6.5,71.201,6.5,150.729
		c0,79.528,64.701,144.229,144.229,144.229c79.528,0,144.229-64.7,144.229-144.229C294.958,71.201,230.257,6.5,150.729,6.5
		L150.729,6.5z"/>
</g>
<path fill="#DB42E8" d="M-449.141,28.253"/>
<rect x="87" y="180.875" fill="#FFFFFF" width="50.333" height="29.666"/>
<rect x="117.667" y="165.875" fill="#FFFFFF" width="61.667" height="44.666"/>
<polygon fill="#FFFFFF" points="179.334,168.541 148.592,168.541 153.069,109.745 175.752,109.745 "/>
<ellipse fill="#68331E" cx="-331" cy="-13.5" rx="17" ry="13.5"/>
<ellipse fill="#68331E" cx="-307.25" cy="-27.5" rx="15.25" ry="14"/>
<ellipse fill="#68331E" cx="-282.25" cy="6.5" rx="9.75" ry="0"/>
<ellipse fill="#FFFFFF" cx="169.875" cy="87.688" rx="8.873" ry="6.313"/>
<ellipse fill="#FFFFFF" cx="186.457" cy="71.438" rx="8.873" ry="6.313"/>
<ellipse fill="#68331E" cx="-324.75" cy="-31.25" rx="12.75" ry="10.25"/>
<ellipse fill="#68331E" cx="-292.125" cy="-21.75" rx="15.125" ry="12.25"/>
</svg>
