<?xml version="1.0" encoding="utf-8"?>
<!-- Generator: Adobe Illustrator 16.0.0, SVG Export Plug-In . SVG Version: 6.00 Build 0)  -->
<!DOCTYPE svg PUBLIC "-//W3C//DTD SVG 1.1//EN" "http://www.w3.org/Graphics/SVG/1.1/DTD/svg11.dtd">
<svg version="1.1" id="Layer_1" xmlns="http://www.w3.org/2000/svg" xmlns:xlink="http://www.w3.org/1999/xlink" x="0px" y="0px"
	 width="300px" height="300px" viewBox="0 0 300 300" enable-background="new 0 0 300 300" xml:space="preserve">
<g>
	<path fill="#DB42E8" d="M150.729,284.457C76.99,284.457,17,224.467,17,150.729S76.99,17,150.729,17s133.729,59.99,133.729,133.729
		C284.457,224.467,224.466,284.457,150.729,284.457z"/>
	<path fill="#FFFFFF" d="M150.729,27.5c67.949,0,123.229,55.28,123.229,123.229c-0.001,67.948-55.281,123.229-123.229,123.229
		S27.5,218.677,27.5,150.729S82.78,27.5,150.729,27.5 M150.729,6.5C71.201,6.5,6.5,71.201,6.5,150.729
		c0,79.528,64.701,144.229,144.229,144.229c79.528,0,144.229-64.7,144.229-144.229C294.958,71.201,230.257,6.5,150.729,6.5
		L150.729,6.5z"/>
</g>
<path fill="#DB42E8" d="M-449.141,28.253"/>
<path fill="#FFFFFF" d="M168.334,113.952c14,22,45.75,17.291,51.082,11.291c5.334-6,16.334-12,16.097,6.334
	c-0.237,18.333,2.237,32.333-0.097,39.748c-2.333,7.416,6.668,15.918-13,14.585c-19.666-1.333-35.332-2-35.332-2v-9.792l-38.5,8
	c0,0-41.833,3.125-65.833,0.792c-10.073-0.979-28.792-1.167-28.917-2.104c-1.197-8.977-4.833-29.688,35.333-35.188"/>
</svg>
