<?xml version="1.0" encoding="utf-8"?>
<!-- Generator: Adobe Illustrator 16.0.0, SVG Export Plug-In . SVG Version: 6.00 Build 0)  -->
<!DOCTYPE svg PUBLIC "-//W3C//DTD SVG 1.1//EN" "http://www.w3.org/Graphics/SVG/1.1/DTD/svg11.dtd">
<svg version="1.1" id="Layer_1" xmlns="http://www.w3.org/2000/svg" xmlns:xlink="http://www.w3.org/1999/xlink" x="0px" y="0px"
	 width="300px" height="300px" viewBox="0 0 300 300" enable-background="new 0 0 300 300" xml:space="preserve">
<g>
	<path fill="#41B8EA" d="M150.729,284.457C76.99,284.457,17,224.467,17,150.729S76.99,17,150.729,17s133.729,59.99,133.729,133.729
		C284.457,224.467,224.466,284.457,150.729,284.457z"/>
	<path fill="#FFFFFF" d="M150.729,27.5c67.949,0,123.229,55.28,123.229,123.229c-0.001,67.948-55.281,123.229-123.229,123.229
		S27.5,218.677,27.5,150.729S82.78,27.5,150.729,27.5 M150.729,6.5C71.201,6.5,6.5,71.201,6.5,150.729
		c0,79.528,64.701,144.229,144.229,144.229c79.528,0,144.229-64.7,144.229-144.229C294.958,71.201,230.257,6.5,150.729,6.5
		L150.729,6.5z"/>
</g>
<g>
	<path fill="#FFFFFF" d="M163.094,206.313c0,5.25,0.965,8.676,2.893,10.281c1.929,1.606,4.498,2.65,7.712,3.135
		c3.213,0.479,5.487,1.156,6.829,2.023c1.336,0.868,2.007,2.663,2.007,5.373c0,3.584-3.115,5.374-9.343,5.374
		c-2.686,0-6.711-0.321-12.075-0.964c-5.371-0.643-9.345-0.965-11.919-0.965c-2.579,0-6.338,0.428-11.275,1.285
		c-4.94,0.857-8.644,1.285-11.113,1.285c-2.469,0-4.592-0.705-6.363-2.111c-1.772-1.413-2.656-3.256-2.656-5.535
		c0-1.409,0.482-2.631,1.446-3.658c0.964-1.027,3.427-1.866,7.391-2.509c3.961-0.644,6.72-1.927,8.274-3.851
		c1.551-1.92,2.33-6.57,2.33-13.949v-54.203c0-4.597-0.965-7.644-2.893-9.14c-1.928-1.497-4.767-2.621-8.515-3.369
		c-3.751-0.748-6.081-1.717-6.989-2.912c-0.912-1.192-1.366-2.656-1.366-4.394c0-1.95,0.779-3.55,2.337-4.797
		c1.56-1.247,3.415-1.873,5.563-1.873c1.827,0,4.433,0.402,7.819,1.205c3.384,0.804,5.884,1.205,7.498,1.205
		c1.825,0,4.619-0.293,8.383-0.884c3.759-0.587,6.556-0.883,8.384-0.883c3.978,0,5.965,3.321,5.965,9.961
		c0,1.071-0.058,2.49-0.162,4.257c-0.108,1.768-0.159,2.973-0.159,3.615v66.998H163.094z M150.001,66.858
		c4.905,0,9.144,1.788,12.713,5.357c3.57,3.572,5.359,7.809,5.359,12.711c0,4.371-1.759,8.076-5.279,11.113
		c-3.519,3.038-7.676,4.557-12.472,4.557c-4.801,0-8.933-1.677-12.396-5.036c-3.465-3.359-5.197-7.383-5.197-12.074
		c0-4.476,1.732-8.367,5.197-11.67C141.39,68.513,145.416,66.858,150.001,66.858z"/>
</g>
</svg>
