<?xml version="1.0" encoding="utf-8"?>
<!-- Generator: Adobe Illustrator 16.0.0, SVG Export Plug-In . SVG Version: 6.00 Build 0)  -->
<!DOCTYPE svg PUBLIC "-//W3C//DTD SVG 1.1//EN" "http://www.w3.org/Graphics/SVG/1.1/DTD/svg11.dtd">
<svg version="1.1" id="Layer_1" xmlns="http://www.w3.org/2000/svg" xmlns:xlink="http://www.w3.org/1999/xlink" x="0px" y="0px"
	 width="300px" height="300px" viewBox="0 0 300 300" enable-background="new 0 0 300 300" xml:space="preserve">
<g>
	<path fill="#146626" d="M150.729,284.457C76.99,284.457,17,224.467,17,150.729C17,76.991,76.99,17,150.729,17
		c73.739,0,133.729,59.99,133.729,133.729C284.457,224.467,224.466,284.457,150.729,284.457z"/>
	<path fill="#FFFFFF" d="M150.729,27.5c67.949,0,123.229,55.28,123.229,123.229c-0.001,67.948-55.281,123.229-123.229,123.229
		c-67.947,0-123.229-55.281-123.229-123.229C27.5,82.781,82.78,27.5,150.729,27.5 M150.729,6.5C71.201,6.5,6.5,71.201,6.5,150.729
		c0,79.528,64.701,144.229,144.229,144.229c79.528,0,144.229-64.7,144.229-144.229C294.958,71.201,230.257,6.5,150.729,6.5
		L150.729,6.5z"/>
</g>
<path fill="#DB42E8" d="M-449.141,28.253"/>
<path fill="#FFFFFF" d="M228.229,192.5c0,5.523-4.477,10-10,10h-135c-5.523,0-10-4.477-10-10v-79c0-5.523,4.477-10,10-10h135
	c5.523,0,10,4.477,10,10V192.5z"/>
<rect x="11.636" y="145.708" transform="matrix(0.608 0.794 -0.794 0.608 180.3094 -52.4153)" fill="#FFFFFF" width="263.189" height="21.333"/>
<rect x="85.229" y="153" fill="#146626" width="95.938" height="6.666"/>
<rect x="85.229" y="168.501" fill="#146626" width="43.938" height="6.666"/>
</svg>
