<?xml version="1.0" encoding="utf-8"?>
<!-- Generator: Adobe Illustrator 16.0.0, SVG Export Plug-In . SVG Version: 6.00 Build 0)  -->
<!DOCTYPE svg PUBLIC "-//W3C//DTD SVG 1.1//EN" "http://www.w3.org/Graphics/SVG/1.1/DTD/svg11.dtd">
<svg version="1.1" id="Layer_1" xmlns="http://www.w3.org/2000/svg" xmlns:xlink="http://www.w3.org/1999/xlink" x="0px" y="0px"
	 width="300px" height="300px" viewBox="0 0 300 300" enable-background="new 0 0 300 300" xml:space="preserve">
<g>
	<path fill="#E5C942" d="M150.729,284.457C76.99,284.457,17,224.467,17,150.729S76.99,17,150.729,17s133.729,59.99,133.729,133.729
		C284.457,224.467,224.466,284.457,150.729,284.457z"/>
	<path fill="#FFFFFF" d="M150.729,27.5c67.949,0,123.229,55.28,123.229,123.229c-0.001,67.948-55.281,123.229-123.229,123.229
		S27.5,218.677,27.5,150.729S82.78,27.5,150.729,27.5 M150.729,6.5C71.201,6.5,6.5,71.201,6.5,150.729
		c0,79.528,64.701,144.229,144.229,144.229c79.528,0,144.229-64.7,144.229-144.229C294.958,71.201,230.257,6.5,150.729,6.5
		L150.729,6.5z"/>
</g>
<path fill="#DB42E8" d="M-449.141,28.253"/>
<path fill="#FFFFFF" d="M150.729,83.5c-38.246,0-69.25,17.813-69.25,56.06s16.076,49.052,69.25,82.44
	c57.914-36.686,69.25-44.194,69.25-82.44S188.975,83.5,150.729,83.5z M150.729,166.216c-18.212,0-32.976-12.55-32.976-28.03
	c0-15.479,14.764-28.029,32.976-28.029c18.213,0,32.977,12.55,32.977,28.029C183.705,153.666,168.941,166.216,150.729,166.216z"/>
</svg>
