<?xml version="1.0" encoding="utf-8"?>
<!-- Generator: Adobe Illustrator 16.0.0, SVG Export Plug-In . SVG Version: 6.00 Build 0)  -->
<!DOCTYPE svg PUBLIC "-//W3C//DTD SVG 1.1//EN" "http://www.w3.org/Graphics/SVG/1.1/DTD/svg11.dtd">
<svg version="1.1" xmlns="http://www.w3.org/2000/svg" xmlns:xlink="http://www.w3.org/1999/xlink" x="0px" y="0px" width="220px"
	 height="220px" viewBox="0 0 220 220" enable-background="new 0 0 220 220" xml:space="preserve">
<g id="Layer_3" display="none">
	<rect x="-27" y="-12.25" display="inline" fill="#56CAF2" width="256.667" height="253.667"/>
</g>
<g id="Layer_4" display="none">
	<g display="inline">
		
			<line fill="#F4845F" stroke="#F4845F" stroke-width="16" stroke-miterlimit="10" x1="153.762" y1="79.495" x2="86.829" y2="135.005"/>
		
			<line fill="#F4845F" stroke="#F4845F" stroke-width="16" stroke-miterlimit="10" x1="143.276" y1="79.495" x2="211.287" y2="135.121"/>
		<path fill="#F4845F" d="M148.138,101.673l-45.753,38.38v46.873h93.038v-46.873L148.138,101.673z M144.701,173.663
			c0,1.727-1.401,3.127-3.13,3.127h-11.099c-1.728,0-3.129-1.4-3.129-3.127v-11.089c0-1.727,1.401-3.128,3.129-3.128h11.099
			c1.729,0,3.13,1.401,3.13,3.128V173.663z M144.701,151.001c0,1.728-1.401,3.127-3.13,3.127h-11.099
			c-1.728,0-3.129-1.399-3.129-3.127v-11.089c0-1.728,1.401-3.128,3.129-3.128h11.099c1.729,0,3.13,1.4,3.13,3.128V151.001z
			 M168.076,173.663c0,1.727-1.4,3.127-3.129,3.127h-11.099c-1.729,0-3.13-1.4-3.13-3.127v-11.089c0-1.727,1.4-3.128,3.13-3.128
			h11.099c1.729,0,3.129,1.401,3.129,3.128V173.663z M168.076,151.001c0,1.728-1.4,3.127-3.129,3.127h-11.099
			c-1.729,0-3.13-1.399-3.13-3.127v-11.089c0-1.728,1.4-3.128,3.13-3.128h11.099c1.729,0,3.129,1.4,3.129,3.128V151.001z"/>
	</g>
	<g display="inline">
		
			<line fill="#F4845F" stroke="#F4845F" stroke-width="16" stroke-miterlimit="10" x1="65.065" y1="81.495" x2="133.076" y2="137.121"/>
		
			<line fill="#F4845F" stroke="#F4845F" stroke-width="16" stroke-miterlimit="10" x1="75.551" y1="81.495" x2="8.618" y2="137.005"/>
		<path fill="#F4845F" d="M69.927,103.673l-45.753,38.38v46.873h93.038v-46.873L69.927,103.673z M66.49,175.663
			c0,1.727-1.401,3.127-3.13,3.127H52.262c-1.728,0-3.129-1.4-3.129-3.127v-11.089c0-1.727,1.401-3.128,3.129-3.128H63.36
			c1.729,0,3.13,1.401,3.13,3.128V175.663z M66.49,153.001c0,1.728-1.401,3.127-3.13,3.127H52.262c-1.728,0-3.129-1.399-3.129-3.127
			v-11.089c0-1.728,1.401-3.128,3.129-3.128H63.36c1.729,0,3.13,1.4,3.13,3.128V153.001z M89.865,175.663
			c0,1.727-1.4,3.127-3.129,3.127H75.638c-1.729,0-3.13-1.4-3.13-3.127v-11.089c0-1.727,1.4-3.128,3.13-3.128h11.099
			c1.729,0,3.129,1.401,3.129,3.128V175.663z M89.865,153.001c0,1.728-1.4,3.127-3.129,3.127H75.638c-1.729,0-3.13-1.399-3.13-3.127
			v-11.089c0-1.728,1.4-3.128,3.13-3.128h11.099c1.729,0,3.129,1.4,3.129,3.128V153.001z"/>
	</g>
</g>
<g id="Layer_1">
</g>
<g id="Layer_2">
	<g>
		
			<line fill="none" stroke="#FFFFFF" stroke-width="16" stroke-miterlimit="10" x1="183.699" y1="100.832" x2="183.699" y2="199.161"/>
		
			<line fill="none" stroke="#FFFFFF" stroke-width="16" stroke-miterlimit="10" x1="35.749" y1="101.282" x2="35.749" y2="204.126"/>
		
			<line fill="#F4845F" stroke="#FFFFFF" stroke-width="29" stroke-miterlimit="10" x1="110.219" y1="37.015" x2="3.923" y2="125.244"/>
		
			<line fill="#F4845F" stroke="#FFFFFF" stroke-width="32" stroke-miterlimit="10" x1="109.808" y1="38.394" x2="216.103" y2="126.624"/>
		<rect x="46.399" y="81.129" fill="#FFFFFF" width="116.557" height="100.028"/>
	</g>
	
		<line fill="#F4845F" stroke="#F4845F" stroke-width="16" stroke-miterlimit="10" x1="114.339" y1="30.883" x2="8.042" y2="119.112"/>
	
		<line fill="#F4845F" stroke="#F4845F" stroke-width="16" stroke-miterlimit="10" x1="103.973" y1="30.883" x2="211.98" y2="119.297"/>
	<path fill="#F4845F" d="M109.067,59.777l-72.659,61.002v74.5h147.754v-74.5L109.067,59.777z M103.609,174.198
		c0,2.744-2.225,4.971-4.971,4.971H81.015c-2.746,0-4.971-2.227-4.971-4.971v-17.625c0-2.745,2.225-4.97,4.971-4.97h17.624
		c2.746,0,4.971,2.225,4.971,4.97V174.198z M103.609,138.18c0,2.745-2.225,4.969-4.971,4.969H81.015
		c-2.746,0-4.971-2.224-4.971-4.969v-17.625c0-2.746,2.225-4.97,4.971-4.97h17.624c2.746,0,4.971,2.225,4.971,4.97V138.18z
		 M140.732,174.198c0,2.744-2.225,4.971-4.969,4.971h-17.627c-2.746,0-4.971-2.227-4.971-4.971v-17.625
		c0-2.745,2.225-4.97,4.971-4.97h17.627c2.744,0,4.969,2.225,4.969,4.97V174.198z M140.732,138.18c0,2.745-2.225,4.969-4.969,4.969
		h-17.627c-2.746,0-4.971-2.224-4.971-4.969v-17.625c0-2.746,2.225-4.97,4.971-4.97h17.627c2.744,0,4.969,2.225,4.969,4.97V138.18z"
		/>
</g>
</svg>
