<?xml version="1.0" encoding="utf-8"?>
<!-- Generator: Adobe Illustrator 16.0.0, SVG Export Plug-In . SVG Version: 6.00 Build 0)  -->
<!DOCTYPE svg PUBLIC "-//W3C//DTD SVG 1.1//EN" "http://www.w3.org/Graphics/SVG/1.1/DTD/svg11.dtd">
<svg version="1.1" id="Layer_1" xmlns="http://www.w3.org/2000/svg" xmlns:xlink="http://www.w3.org/1999/xlink" x="0px" y="0px"
	 width="220px" height="220px" viewBox="0 0 220 220" enable-background="new 0 0 220 220" xml:space="preserve">
<line fill="#F4845F" stroke="#F4845F" stroke-width="16" stroke-miterlimit="10" x1="114.583" y1="25.191" x2="7" y2="114.487"/>
<line fill="#F4845F" stroke="#F4845F" stroke-width="16" stroke-miterlimit="10" x1="103.684" y1="25.191" x2="213" y2="114.675"/>
<path fill="#F4845F" d="M108.521,54.434l-73.54,61.741v75.403h149.542v-75.403L108.521,54.434z M102.996,170.24
	c0,2.777-2.252,5.03-5.03,5.03H80.128c-2.778,0-5.03-2.253-5.03-5.03v-17.838c0-2.777,2.252-5.029,5.03-5.029h17.838
	c2.778,0,5.03,2.252,5.03,5.029V170.24z M102.996,133.785c0,2.779-2.252,5.03-5.03,5.03H80.128c-2.778,0-5.03-2.251-5.03-5.03
	v-17.838c0-2.778,2.252-5.03,5.03-5.03h17.838c2.778,0,5.03,2.252,5.03,5.03V133.785z M140.568,170.24c0,2.777-2.252,5.03-5.03,5.03
	h-17.839c-2.778,0-5.031-2.253-5.031-5.03v-17.838c0-2.777,2.252-5.029,5.031-5.029h17.839c2.778,0,5.03,2.252,5.03,5.029V170.24z
	 M140.568,133.785c0,2.779-2.252,5.03-5.03,5.03h-17.839c-2.778,0-5.031-2.251-5.031-5.03v-17.838c0-2.778,2.252-5.03,5.031-5.03
	h17.839c2.778,0,5.03,2.252,5.03,5.03V133.785z"/>
</svg>
