<?xml version="1.0" encoding="utf-8"?>
<!-- Generator: Adobe Illustrator 16.0.0, SVG Export Plug-In . SVG Version: 6.00 Build 0)  -->
<!DOCTYPE svg PUBLIC "-//W3C//DTD SVG 1.1//EN" "http://www.w3.org/Graphics/SVG/1.1/DTD/svg11.dtd">
<svg version="1.1" id="Layer_1" xmlns="http://www.w3.org/2000/svg" xmlns:xlink="http://www.w3.org/1999/xlink" x="0px" y="0px"
	 width="220px" height="220px" viewBox="40 40 220 220" enable-background="new 40 40 220 220" xml:space="preserve">
<line fill="none" stroke="#F4845F" stroke-width="16" stroke-miterlimit="10" x1="132.589" y1="94.171" x2="50" y2="166.73"/>
<line fill="none" stroke="#F4845F" stroke-width="16" stroke-miterlimit="10" x1="124.223" y1="94.171" x2="208.144" y2="166.882"/>
<polygon fill="#F4845F" points="128.654,118.009 72.2,168.177 72.2,229.445 187,229.445 187,168.177 "/>
<g>
	<ellipse fill="#F4845F" cx="213.443" cy="224.28" rx="36.572" ry="10.739"/>
	<ellipse fill="#FFFFFF" cx="213.443" cy="217.567" rx="36.572" ry="10.741"/>
	<ellipse fill="#F4845F" cx="213.443" cy="209.512" rx="36.572" ry="10.739"/>
	<ellipse fill="#FFFFFF" cx="213.443" cy="202.799" rx="36.572" ry="10.739"/>
	<ellipse fill="#F4845F" cx="213.443" cy="194.744" rx="36.572" ry="10.74"/>
	<ellipse fill="#FFFFFF" cx="213.443" cy="188.03" rx="36.572" ry="10.739"/>
	<ellipse fill="#F4845F" cx="213.443" cy="179.976" rx="36.572" ry="10.739"/>
	<ellipse fill="#FFFFFF" cx="213.443" cy="173.262" rx="36.572" ry="10.741"/>
	<ellipse fill="#F4845F" cx="213.443" cy="165.208" rx="36.572" ry="10.739"/>
	<ellipse fill="#FFFFFF" cx="213.443" cy="158.494" rx="36.572" ry="10.741"/>
	<ellipse fill="#F4845F" cx="213.443" cy="150.439" rx="36.572" ry="10.739"/>
	<ellipse fill="#FFFFFF" cx="213.443" cy="143.726" rx="36.572" ry="10.741"/>
	<ellipse fill="#FFFFFF" cx="213.443" cy="130.3" rx="36.572" ry="10.74"/>
	<ellipse fill="#F4845F" cx="213.443" cy="135.67" rx="36.572" ry="10.74"/>
</g>
<line fill="none" stroke="#FFFFFF" stroke-width="6" stroke-miterlimit="10" x1="129.601" y1="149.438" x2="129.601" y2="219.963"/>
<g>
	<path fill="#FFFFFF" d="M111.834,190.215c2.415,5.883,5.19,9.953,8.326,12.214c3.135,2.262,7.001,3.391,11.599,3.391
		c4.246,0,7.509-0.807,9.787-2.421c2.279-1.616,3.418-3.664,3.418-6.146c0-1.429-0.419-2.677-1.259-3.747
		c-0.839-1.072-2-1.87-3.483-2.398c-1.483-0.527-5.328-1.301-11.533-2.32c-5.933-1.02-10.068-2.09-12.407-3.212
		c-2.338-1.121-4.162-2.668-5.467-4.64c-1.307-1.972-1.959-4.113-1.959-6.425c0-3.502,1.346-6.681,4.038-9.536
		c3.471-3.636,8.327-5.455,14.569-5.455c4.759,0,9.167,1.309,13.224,3.926l3.863-3.569h2.399l1.521,17.03h-3.915
		c-1.718-4.826-4.04-8.303-6.967-10.428c-2.927-2.123-6.538-3.188-10.831-3.188c-3.708,0-6.616,0.791-8.723,2.373
		c-2.108,1.58-3.162,3.51-3.162,5.789c0,2.006,0.976,3.672,2.927,4.996c1.912,1.361,5.658,2.432,11.239,3.217
		c6.478,0.957,10.692,1.758,12.644,2.406c3.197,1.021,5.673,2.592,7.428,4.715c1.755,2.124,2.632,4.714,2.632,7.771
		c0,4.213-1.902,7.78-5.705,10.703c-3.804,2.922-8.63,4.383-14.479,4.383c-5.422,0-10.454-1.563-15.096-4.691l-4.27,4.283h-3.1
		l-1.17-19.02h3.913V190.215z"/>
</g>
</svg>
