<?xml version="1.0" encoding="utf-8"?>
<!-- Generator: Adobe Illustrator 16.0.0, SVG Export Plug-In . SVG Version: 6.00 Build 0)  -->
<!DOCTYPE svg PUBLIC "-//W3C//DTD SVG 1.1//EN" "http://www.w3.org/Graphics/SVG/1.1/DTD/svg11.dtd">
<svg version="1.1" id="Layer_1" xmlns="http://www.w3.org/2000/svg" xmlns:xlink="http://www.w3.org/1999/xlink" x="0px" y="0px"
	 width="300px" height="300px" viewBox="0 0 300 300" enable-background="new 0 0 300 300" xml:space="preserve">
<line fill="#F4845F" stroke="#F4845F" stroke-width="16" stroke-miterlimit="10" x1="126.707" y1="45.229" x2="6.986" y2="150.41"/>
<line fill="#F4845F" stroke="#F4845F" stroke-width="16" stroke-miterlimit="10" x1="114.579" y1="45.229" x2="236.228" y2="150.629"/>
<polygon fill="#F4845F" points="121.003,79.784 39.167,152.506 39.167,241.321 205.58,241.321 205.58,152.506 "/>
<g>
	<ellipse fill="#F4845F" cx="243.911" cy="233.833" rx="53.015" ry="15.567"/>
	<ellipse fill="#FFFFFF" cx="243.911" cy="224.101" rx="53.015" ry="15.57"/>
	<ellipse fill="#F4845F" cx="243.911" cy="212.425" rx="53.015" ry="15.567"/>
	<ellipse fill="#FFFFFF" cx="243.911" cy="202.694" rx="53.015" ry="15.567"/>
	<ellipse fill="#F4845F" cx="243.911" cy="191.017" rx="53.015" ry="15.569"/>
	<ellipse fill="#FFFFFF" cx="243.911" cy="181.286" rx="53.015" ry="15.568"/>
	<ellipse fill="#F4845F" cx="243.911" cy="169.609" rx="53.015" ry="15.568"/>
	<ellipse fill="#FFFFFF" cx="243.911" cy="159.878" rx="53.015" ry="15.569"/>
	<ellipse fill="#F4845F" cx="243.911" cy="148.202" rx="53.015" ry="15.567"/>
	<ellipse fill="#FFFFFF" cx="243.911" cy="138.47" rx="53.015" ry="15.57"/>
	<ellipse fill="#F4845F" cx="243.911" cy="126.794" rx="53.015" ry="15.567"/>
	<ellipse fill="#FFFFFF" cx="243.911" cy="117.063" rx="53.015" ry="15.57"/>
	<ellipse fill="#FFFFFF" cx="243.911" cy="97.601" rx="53.015" ry="15.569"/>
	<ellipse fill="#F4845F" cx="243.911" cy="105.385" rx="53.015" ry="15.569"/>
</g>
<line fill="none" stroke="#FFFFFF" stroke-width="13" stroke-miterlimit="10" x1="122.374" y1="125.343" x2="122.374" y2="227.574"/>
<g>
	<path fill="#FFFFFF" d="M96.621,184.453c3.5,8.527,7.523,14.427,12.069,17.704c4.544,3.278,10.149,4.915,16.813,4.915
		c6.154,0,10.884-1.169,14.187-3.51c3.304-2.341,4.955-5.311,4.955-8.908c0-2.07-0.608-3.881-1.825-5.432
		c-1.216-1.554-2.899-2.71-5.049-3.476c-2.15-0.763-7.723-1.885-16.718-3.363c-8.6-1.479-14.594-3.029-17.985-4.656
		c-3.39-1.626-6.033-3.868-7.926-6.726c-1.894-2.859-2.84-5.962-2.84-9.314c0-5.075,1.951-9.683,5.854-13.822
		c5.031-5.271,12.071-7.908,21.119-7.908c6.899,0,13.289,1.896,19.169,5.69l5.6-5.174h3.478l2.205,24.688h-5.675
		c-2.49-6.997-5.856-12.036-10.099-15.116c-4.243-3.078-9.477-4.62-15.7-4.62c-5.375,0-9.59,1.146-12.644,3.438
		c-3.056,2.291-4.583,5.088-4.583,8.392c0,2.908,1.414,5.322,4.243,7.242c2.771,1.973,8.202,3.527,16.291,4.664
		c9.39,1.387,15.499,2.548,18.328,3.488c4.635,1.479,8.224,3.757,10.767,6.834c2.544,3.079,3.816,6.834,3.816,11.266
		c0,6.107-2.757,11.278-8.271,15.514c-5.513,4.237-12.509,6.354-20.989,6.354c-7.859,0-15.154-2.266-21.882-6.8l-6.19,6.209h-4.494
		l-1.697-27.572H96.621z"/>
</g>
</svg>
