<?xml version="1.0" encoding="utf-8"?>
<!-- Generator: Adobe Illustrator 16.0.0, SVG Export Plug-In . SVG Version: 6.00 Build 0)  -->
<!DOCTYPE svg PUBLIC "-//W3C//DTD SVG 1.1//EN" "http://www.w3.org/Graphics/SVG/1.1/DTD/svg11.dtd">
<svg version="1.1" id="Layer_1" xmlns="http://www.w3.org/2000/svg" xmlns:xlink="http://www.w3.org/1999/xlink" x="0px" y="0px"
	 width="220px" height="220px" viewBox="40 40 220 220" enable-background="new 40 40 220 220" xml:space="preserve">
<rect x="103.081" y="83.239" fill="none" stroke="#F4845F" stroke-width="12" stroke-miterlimit="10" width="96.549" height="137.226"/>
<polygon fill="#F4845F" points="203.382,223.736 145.074,234 145.074,67.899 203.382,79.693 "/>
<ellipse fill="#FFFFFF" cx="157.455" cy="153.542" rx="3.718" ry="4.725"/>
<g>
	
		<rect x="-99.597" y="-63.435" transform="matrix(-0.6038 -0.7971 0.7971 -0.6038 -117.3999 -158.0002)" fill="#FFFFFF" width="3.266" height="27.219"/>
	
		<rect x="-93.641" y="-60.471" transform="matrix(-0.604 -0.797 0.797 -0.604 -96.9573 -166.0311)" fill="#FFFFFF" width="7.827" height="3.087"/>
	
		<rect x="-103.415" y="-53.056" transform="matrix(-0.6039 -0.7971 0.7971 -0.6039 -118.5319 -161.9303)" fill="#FFFFFF" width="7.826" height="3.087"/>
	<path fill="#FFFFFF" d="M-106.089-43.667c-2.358-3.112-6.792-3.723-9.904-1.365c-3.112,2.358-3.723,6.792-1.365,9.904
		c2.357,3.111,6.792,3.723,9.903,1.365C-104.344-36.121-103.732-40.555-106.089-43.667z M-114.009-37.666
		c-0.956-1.262-0.708-3.06,0.554-4.016c1.261-0.956,3.059-0.708,4.016,0.553c0.956,1.262,0.708,3.06-0.554,4.016
		C-111.255-36.157-113.053-36.405-114.009-37.666z"/>
</g>
<rect x="428.183" y="34.016" fill="none" stroke="#F4845F" stroke-width="10" stroke-miterlimit="10" width="131.042" height="219.333"/>
<rect x="438.578" y="43.717" fill="#F4845F" width="110.251" height="199.934"/>
<circle fill="#FFFFFF" cx="455.335" cy="136.766" r="5.418"/>
</svg>
