<?xml version="1.0" encoding="utf-8"?>
<!-- Generator: Adobe Illustrator 16.0.0, SVG Export Plug-In . SVG Version: 6.00 Build 0)  -->
<!DOCTYPE svg PUBLIC "-//W3C//DTD SVG 1.1//EN" "http://www.w3.org/Graphics/SVG/1.1/DTD/svg11.dtd">
<svg version="1.1" id="Layer_1" xmlns="http://www.w3.org/2000/svg" xmlns:xlink="http://www.w3.org/1999/xlink" x="0px" y="0px"
	 width="300px" height="300px" viewBox="0 0 300 300" enable-background="new 0 0 300 300" xml:space="preserve">
<rect x="81.081" y="51.455" fill="none" stroke="#F4845F" stroke-width="12" stroke-miterlimit="10" width="140.064" height="199.074"/>
<polygon fill="#F4845F" points="226.588,255.275 142,270.165 142,29.201 226.588,46.311 "/>
<ellipse fill="#FFFFFF" cx="159.961" cy="153.445" rx="5.395" ry="6.854"/>
<g>
	
		<rect x="-99.598" y="-63.431" transform="matrix(0.6039 0.7971 -0.7971 0.6039 -78.5163 58.3499)" fill="#FFFFFF" width="3.266" height="27.218"/>
	
		<rect x="-93.639" y="-60.47" transform="matrix(0.604 0.797 -0.797 0.604 -82.4981 48.1757)" fill="#FFFFFF" width="7.827" height="3.087"/>
	
		<rect x="-103.417" y="-53.061" transform="matrix(0.6039 0.797 -0.797 0.6039 -80.471 58.9037)" fill="#FFFFFF" width="7.826" height="3.087"/>
	<path fill="#FFFFFF" d="M-106.089-43.667c-2.358-3.112-6.792-3.723-9.904-1.365c-3.112,2.358-3.723,6.792-1.365,9.904
		c2.357,3.111,6.792,3.723,9.903,1.365S-103.732-40.555-106.089-43.667z M-114.009-37.666c-0.956-1.262-0.708-3.06,0.554-4.016
		c1.261-0.956,3.059-0.708,4.016,0.553c0.956,1.262,0.708,3.06-0.554,4.016C-111.255-36.157-113.053-36.405-114.009-37.666z"/>
</g>
<rect x="428.183" y="34.016" fill="none" stroke="#F4845F" stroke-width="10" stroke-miterlimit="10" width="131.042" height="219.333"/>
<rect x="438.578" y="43.717" fill="#F4845F" width="110.251" height="199.933"/>
<circle fill="#FFFFFF" cx="455.335" cy="136.766" r="5.418"/>
</svg>
